<?xml version="1.0" encoding="UTF-8"?>
<!DOCTYPE svg PUBLIC "-//W3C//DTD SVG 1.1//EN" "http://www.w3.org/Graphics/SVG/1.1/DTD/svg11.dtd">
<!-- Creator: CorelDRAW -->
<svg xmlns="http://www.w3.org/2000/svg" xml:space="preserve" width="210mm" height="297mm" version="1.1" style="shape-rendering:geometricPrecision; text-rendering:geometricPrecision; image-rendering:optimizeQuality; fill-rule:evenodd; clip-rule:evenodd"
viewBox="0 0 21000 29700"
 xmlns:xlink="http://www.w3.org/1999/xlink"
 xmlns:xodm="http://www.corel.com/coreldraw/odm/2003">
 <defs>
  <style type="text/css">
   <![CDATA[
    .str0 {stroke:#332D2B;stroke-width:35.28;stroke-miterlimit:22.9256}
    .fil1 {fill:none;fill-rule:nonzero}
    .fil0 {fill:#332D2B;fill-rule:nonzero}
   ]]>
  </style>
 </defs>
 <g id="图层_x0020_4">
  <metadata id="CorelCorpID_0Corel-Layer"/>
  <g>
   <path class="fil0" d="M15421.97 24458.48l1262.46 -750.65 1.6 -0.96 1.88 0.19 79.57 8.16 36.02 -294.86 -152.02 -847.13c-178.89,-304.46 -240.78,-621.64 -202.08,-909.59 23.73,-176.47 85.28,-342.03 180.83,-486.95 95.54,-144.91 225.12,-269.23 384.88,-363.22 266.07,-156.58 616,-229.19 1032.11,-173.25l2.95 0.33 0.1 0.02 3.08 0.4 -0.49 3.83c403.34,84.78 704.86,266.18 902.43,498.08 121.03,142.07 203.1,303.12 245.73,472.56 42.62,169.41 45.83,347.25 9.22,522.92 -58.84,282.27 -220.62,558.99 -487.06,786.24l-407.83 727.65 2.16 0.36 -1.89 11.26 -6.21 -1.05 -7.06 12.61 -62.01 288.44 -8.76 40.79 9.52 6.11c18.97,12.13 37.44,23.8 55.87,35.44l41.89 26.52c7.23,-56.6 14.5,-114.58 21.67,-173.75 7.46,-61.77 14.79,-123.8 21.91,-185.9 4.11,-35.86 8.18,-71.68 12.13,-107.21 4.07,-36.46 8.02,-72.53 11.87,-108.25l11.35 1.2c-3.95,36.8 -7.93,72.96 -11.86,108.31 -4.03,36.26 -8.1,71.97 -12.14,107.25 -7.19,62.88 -14.52,124.87 -21.91,185.95 -7.21,59.44 -14.67,119.13 -22.36,179.19 60.82,38.85 119.37,77.81 167.49,117.09 106.31,86.82 162.75,175.79 85.5,270.39 -334.55,409.67 -339.52,1007.6 -342.95,1424.24 -2.3,278.24 -3.95,476.67 -104.37,488.58l-251.76 29.87c-60.13,212.91 -124.07,411.37 -191.93,594.86 -68.18,184.34 -140.37,353.68 -216.62,507.45l-319.17 1485.18 -0.11 0.46 -0.18 0.47 -134.02 334.82 -1.72 4.27 -4.52 -0.75 -418.73 -70.47 -6.1 -1.02 -7.21 -1.2 -0.01 0 -6.09 -1.05 0 -0.02 -7.16 -1.15 -0.04 0 -424.83 -71.5 -4.55 -0.77 -0.21 -4.59 -17.09 -360.19 -0.03 -0.53 0.06 -0.43 98.38 -804.96c-115.02,-43.36 -240.73,-100.32 -380.69,-173.13 -141.49,-73.6 -297.95,-163.6 -473.1,-272.23l5.97 -9.7c174.54,108.25 330.77,198.1 472.42,271.78 138.7,72.16 263.14,128.64 376.83,171.63l173.63 -1420.83 -274.54 32.57 -1.23 0.14 -1.23 -0.41 -844.74 -281.58c-6.28,296.11 -6.67,577.59 -1.2,844.3 5.51,268.84 17.03,522.93 34.54,762.17l0.41 5.56 -5.61 0.53c-304.6,28.49 -644.8,28.49 -1041.8,-17.03 -396.92,-45.52 -850.79,-136.59 -1382.86,-290.25l3.18 -10.97c531.37,153.47 984.61,244.42 1380.97,289.86 393.83,45.16 731.51,45.43 1033.89,17.54 -17.27,-237.47 -28.65,-489.89 -34.13,-757.2 -5.5,-267.92 -5.07,-550.73 1.29,-848.28l-65.2 -21.73 3.58 -10.81 61.86 20.62c3.06,-139.76 7.43,-282.67 13.08,-428.73 5.76,-149.04 12.88,-301.32 21.32,-456.74 8.47,-155.63 18.28,-314.4 29.38,-476.25 11.02,-160.37 23.32,-323.8 36.93,-490.21 -65.83,1.24 -129.5,3.27 -191.74,5.8 -63.9,2.58 -126.45,5.73 -188.27,9.16l-9.72 0.54 -8.47 15.56 -10 -5.47 5.09 -9.36c-56.93,3.25 -113.48,6.73 -169.99,10.18 -368.51,22.55 -737.05,45.12 -1282.84,8.6l-9.31 -0.62c-2.4,25.89 -4.97,51.48 -7.74,76.76 -3.04,27.84 -6.27,55.28 -9.64,82.19 -20.5,164.16 -48.71,327.69 -81.98,489.51 -33.23,161.77 -71.51,321.74 -112.14,478.93 -52.18,202.01 -108.23,399.51 -162.48,590.65 -215.43,759.31 -402.61,1419.04 -206,1856.21l4.27 9.51 -10.29 -1.51c-469.71,-68.49 -930.49,-139.39 -1391.25,-210.26 -1515.42,-233.11 -3030.85,-466.22 -4818.33,-608.58l-3.02 -0.26 -1.52 -2.67c-799.29,-1429.37 -1301.37,-2845.29 -1553.11,-4249.8 -251.75,-1404.56 -253.19,-2797.75 -51.23,-4181.57l0.33 -2.2 1.68 -1.39c522.68,-432.74 1097.69,-839.38 1740.93,-1211.85 643.17,-372.43 1354.7,-710.77 2150.49,-1006.94l3.96 10.7c-795.08,295.91 -1506.01,633.96 -2148.71,1006.12 -641.95,371.72 -1215.89,777.52 -1737.67,1209.37 -201.48,1382 -199.93,2773.24 51.45,4175.75 251.37,1402.39 752.59,2816.25 1550.37,4243.56 1786.61,142.45 3301.36,375.45 4816.09,608.44 458.24,70.49 916.51,140.98 1381.03,208.77 -191.48,-440.92 -4.97,-1098.48 209.54,-1854.49 54.26,-191.19 110.31,-388.74 162.42,-590.41 40.61,-157.17 78.86,-316.97 112.02,-478.37 33.16,-161.3 61.32,-324.49 81.8,-488.6 3.47,-27.76 6.7,-55.13 9.64,-82.02 2.81,-25.56 5.35,-50.92 7.66,-75.97 -420.38,-3.23 -799.26,-3.25 -1139.75,-3.25l0 -0.01c-640.78,-0.03 -1145.29,-0.08 -1554.51,-21.82l9.92 16.5 -9.79 5.86 -13.9 -23.11c-1507.92,-82.45 -1715.75,-466.64 -2684.33,-2257.58 -302.19,-558.75 -678.55,-1254.65 -1191.53,-2120.89l9.82 -5.8c513.31,866.82 889.63,1562.62 1191.78,2121.29 964.4,1783.19 1172.72,2168.11 2667.12,2251.11l-3015.69 -5014.86 -2.48 -4.13 3.67 -3.14 949.95 -814.26c-88.63,-65.41 -177.45,-107.06 -266.25,-148.67 -91.25,-42.77 -182.53,-85.56 -273.97,-154.15l-4.73 -3.56 3.71 -4.58c318.93,-394.59 581.44,-938.72 816.68,-1426.38l35.64 -73.82 10.27 4.95 -35.63 73.83c-234.6,486.29 -496.28,1028.71 -814.35,1423.92 88.97,65.84 178.09,107.68 267.22,149.45 91.24,42.78 182.52,85.56 273.97,154.15l5.7 4.26 -5.42 4.64 -951.71 815.76 3017.21 5017.39 6.67 0.36c409.4,21.81 913.97,21.85 1554.96,21.87l0 -0.02c340.37,0 719.31,0.03 1146.06,3.34l0.34 0 0.05 0 5.83 0.04 -0.03 0.35 8.98 0.58 0.01 0c545.12,36.48 913.3,13.94 1281.43,-8.59 58.67,-3.59 117.36,-7.24 177.05,-10.59l24.88 -45.86 0.02 0 26.58 -49.41c247.96,-463.05 521.28,-1027.42 848.19,-1806.17 326.94,-778.79 707.48,-1771.92 1169.8,-3092.25l10.78 3.76c-462.46,1320.71 -843.07,2314.02 -1170.04,3092.91 -327,778.96 -600.5,1343.71 -848.67,1807.14l0 0.02 -26.6 49.44 0 0.03 -21.52 39.67 2.64 -0.15c61.53,-3.41 124.08,-6.56 188.46,-9.16 64.08,-2.58 129.94,-4.64 198.34,-5.89l6.31 -0.12 -0.51 6.28c-13.85,169.1 -26.35,334.55 -37.47,496.31 -11.13,162.3 -20.95,321.02 -29.37,476.07 -8.46,155.72 -15.58,307.94 -21.33,456.56 -5.71,147.44 -10.09,291.51 -13.14,432.12l846.8 282.26 1579.95 -187.45 431.95 -51.24c90.43,-10.73 92.05,-204.97 94.31,-477.32 3.44,-418.29 8.42,-1018.61 345.5,-1431.36 71.59,-87.66 17.33,-171.69 -83.85,-254.32 -61.55,-50.26 -140.23,-99.95 -218.9,-149.62 -18.96,-11.98 -37.99,-24 -55.94,-35.47l-0.01 0 -5.94 -3.81 -0.33 1.56 -11.17 -2.38 1.25 -5.79c-39.44,-25.46 -77.52,-50.97 -112.08,-76.7 -34.89,-25.99 -66.15,-52.19 -91.32,-78.57l-1326.74 -136.08 -1260.86 749.69 -5.79 -9.82zm1356.89 -742.09l1239.75 127.15 2.11 0.21 1.47 1.57c24.94,26.41 56.23,52.66 91.28,78.78 33.14,24.69 69.83,49.3 107.86,73.92l7.83 -36.53 62.19 -289.3 0.18 -0.87 0.42 -0.74 5.49 -9.77 -83.53 -14.04 -617.42 -103.81 -25.77 -4.34 -6.1 -1.02 -0.03 0 -2.79 -0.49 -31.79 -5.34 -620.46 -104.39 -96.09 -16.15 1.44 8 0.15 0.89 -0.09 0.81 -36.1 295.46zm1112.27 2694.76l-163.83 19.43 -222.4 1034.81c68.62,-142.24 133.91,-297.27 195.88,-464.78 67.28,-181.92 130.68,-378.58 190.35,-589.46zm-175.83 20.86l-1286.99 152.7 -174.86 1430.81 -98.87 808.94 16.84 355.08 420.29 70.73 7.18 1.18 0.06 0 6.08 1.05 7.19 1.2 6.1 1.02 414.19 69.7 132.13 -330.08 319.22 -1485.4 231.44 -1076.93zm-4809.88 -7050.95c-238.76,793.13 -423.54,1613.22 -562.8,2455.93 -139.28,842.78 -233.1,1708.45 -289.98,2592.64l-11.42 -0.72c56.9,-884.4 150.78,-1750.44 290.13,-2593.75 139.37,-843.37 324.25,-1663.95 563.11,-2457.37l10.96 3.27zm1395.01 -2395.57l21.93 6.22 24.45 6.92c178.49,-449.27 355.88,-963.74 532.85,-1551.4 176.38,-585.73 352.41,-1244.19 528.75,-1983.32 -24.89,17.54 -48.9,33.1 -71.95,46.67 -27.19,16 -52.97,29.21 -77.11,39.48 -400.6,170.77 -772.53,282.37 -1148.88,310.42 -376.48,28.06 -757.35,-27.46 -1175.63,-190.93 -115.27,-45.04 -222.38,-150.56 -303.36,-289.89 -79.38,-136.58 -133.84,-305.83 -146.42,-482.57l-0.05 -0.62 0 -0.03c-0.94,-13.53 -1.66,-27.33 -2.11,-41.3 -0.42,-12.73 -0.62,-25.53 -0.59,-38.38l-0.24 -0.15 -0.61 -0.36 -0.09 -0.09c-56.52,-34.06 -138.41,-59.41 -255.07,-75.98 -107.59,-15.26 -244.62,-23.02 -418.23,-23.32l0 0.52 -25.11 -0.27 -24.6 -0.18 -24.63 0.18 -25.14 0.27 0 -0.52c-175.29,0.31 -313.23,8.2 -421.32,23.76 -115.64,16.65 -196.89,42.06 -252.95,76.14 0.42,190.05 -49.5,375.89 -129.32,527.06 -82.91,157.02 -198.24,276.9 -323.18,325.73 -418.28,163.47 -799.15,218.99 -1175.63,190.93 -376.35,-28.05 -748.28,-139.65 -1148.88,-310.42 -24.14,-10.27 -49.92,-23.48 -77.1,-39.48 -23.06,-13.56 -47.06,-29.12 -71.94,-46.66 151.8,636.29 303.33,1212.59 455,1733.98 152.92,525.64 306.09,995.85 459.96,1415.79l2.8 7.57c318.03,866.68 639.11,1518.64 967.48,2001.33 327.21,480.96 661.65,793.9 1007.54,983.88l-6.47 -20.59 -10.83 -34.12 10.88 -3.46 10.84 34.15 0.02 0.03 10.01 31.84c100.04,53.9 201.06,97.71 303.09,132.35 87.8,29.8 176.4,52.87 265.89,69.85 -47.48,-24.66 -92.97,-59.79 -134.32,-102.29 -77.41,-79.58 -140.5,-185.14 -174.85,-295.68 -34.42,-110.82 -40.08,-226.88 -2.57,-327.21 18.13,-48.45 46.32,-93.23 86.12,-131.96 38.73,-37.68 88.51,-69.66 150.7,-93.67 57.88,-22.36 126.52,-37.89 207.07,-44.8l0.45 -0.07 0.04 -3.98c7.18,0.09 14.19,0.27 21.01,0.48 6.92,0.22 13.73,0.48 20.29,0.78 13.31,-0.62 26.97,-1.08 41.12,-1.26l0.04 3.99 0.57 0.08c86.4,7.42 159.07,24.73 219.42,49.75 65.26,27.06 116.17,63.21 154.53,105.65 31.33,34.66 54.29,73.53 69.82,115.05 39.8,106.42 31.02,230.51 -9.13,347.32 -40.07,116.5 -111.51,225.96 -197.19,303.42 -33.29,30.08 -68.79,55.34 -105.41,74.37 416.09,-78.96 813.74,-288.72 1199.37,-699.2 400.2,-426 787.6,-1068.18 1169.4,-2004.45l0.01 0 6.36 -15.81 4.38 -10.91 -6.5 -21.08 -11.78 -38.25 10.91 -3.37 11.77 38.26 2.37 7.65 7.54 -18.71 13.55 -33.89 0 -0.02 2.99 -7.42 -23.29 -6.59 -21.93 -6.22 3.09 -10.99zm57.4 16.26c867.07,246.45 1643.2,538.5 2352.86,863.73 711.29,325.94 1355.94,685.31 1958.66,1065.56l2.72 1.71 -0.04 3.2c-6.1,333.8 -14.12,660.35 -24.06,979.34 -9.94,319.25 -21.87,630.99 -35.77,934.87l-11.42 -0.49c13.92,-304.12 25.85,-615.8 35.77,-934.68 9.93,-318.09 17.94,-643.54 24,-976.04 -601.54,-379.35 -1244.86,-737.87 -1954.6,-1063.11 -709.4,-325.11 -1485.33,-617.04 -2352.35,-863.42l-3.43 8.53 -13.54 33.89 0 0.02 -12.81 31.77c166.3,537.57 321.71,965.92 466.15,1284.98 144.31,318.77 277.58,528.15 399.67,628.06l6.16 5.05 -6.76 4.23 -808.98 505.62 1012.65 371.3 4.55 1.67 -0.9 4.75c-156.42,820.59 -368.37,1613.5 -648.54,2372.28 -280.18,758.77 -628.68,1483.52 -1058.28,2167.73l-9.64 -6.06c429.1,-683.44 777.24,-1407.46 1057.19,-2165.61 279.41,-756.7 490.89,-1547.41 647.12,-2365.7l-1019.05 -373.66 -10.96 -4.02 9.91 -6.19 812.18 -507.62c-121.8,-102.92 -254.07,-311.97 -396.74,-627.15 -143.39,-316.72 -297.58,-741.05 -462.49,-1272.87l-5.5 13.69 0 0.03c-382.35,937.61 -770.49,1580.91 -1171.68,2007.96 -401.47,427.36 -816.05,638.23 -1250.95,710.75l-0.79 0.3 -0.03 0c-2.71,1.02 -5.48,2.06 -8.24,2.99l0 0.01c-12.13,4.13 -24.39,7.54 -36.63,10.17 11.38,0.8 22.75,1.5 33.9,2.09l-0.57 11.41c-16.01,-0.81 -31.78,-1.83 -47.27,-3 -14.85,-1.11 -30.39,-2.5 -46.52,-4.01l0 0.01 -0.17 -0.01 -0.13 -0.02c-4,0 -8.08,-0.1 -12.21,-0.33l-0.03 0c-3.77,-0.18 -7.79,-0.55 -11.88,-0.93l-0.09 0c-4.08,0.38 -8.06,0.75 -11.85,0.95 -4.13,0.21 -8.24,0.31 -12.21,0.31l-0.22 0.02 -0.09 0.01 0 -0.01c-13.62,1.27 -26.5,2.39 -38.76,3.32 -12.8,0.96 -25.94,1.86 -39.31,2.67l-6.78 0.48 -0.03 0 -8.07 0.54 -0.37 0.02 -0.28 0 -0.22 0 -0.27 0 0 -11.45 0.27 0 0.22 0 0.13 0 7.8 -0.52 6.79 -0.48 0.08 0 17.54 -1.18c-3.34,-0.72 -6.64,-1.45 -9.96,-2.29 -5.84,-1.47 -11.8,-3.22 -17.76,-5.11l-0.02 0c-5.56,-1.77 -11.23,-3.78 -16.92,-5.9 -105.49,-17.57 -209.82,-43.39 -313.05,-78.42 -99.16,-33.69 -197.35,-75.93 -294.58,-127.63 412.47,1317.6 563.19,2467.3 698.2,3497.32 34.75,265.08 68.48,522.29 105.5,773.43 14.21,96.3 28.79,191.01 43.91,283.87 15.23,93.5 31.19,186.15 48.1,277.89l-11.23 2.04c-16.9,-91.62 -32.86,-184.33 -48.13,-278.1 -15.38,-94.4 -29.96,-189.01 -43.98,-284.05 -36.8,-249.7 -70.64,-507.7 -105.5,-773.61 -135.31,-1032.43 -286.42,-2185.19 -701.22,-3506.51l-7.53 -4.08c-348.46,-190.67 -685.19,-505.17 -1014.39,-989.08 -328.93,-483.5 -650.43,-1136.26 -968.78,-2003.78l-2.79 -7.57c-153.93,-420.14 -307.21,-890.61 -460.21,-1416.55 -152.88,-525.53 -305.51,-1106.27 -458.25,-1747.36 -276.6,-200.81 -658.34,-643.06 -1005.82,-1303.73 -266.62,-506.91 -513.21,-1142.58 -676.78,-1896.62l-2.36 -10.91 10.23 4.49c62.64,27.49 126.45,54.8 191.23,81.89 59.85,25.02 120.46,49.86 181.63,74.49 -366.75,-679.2 -690.94,-1438.4 -966.22,-2289.16 -277.12,-856.44 -504.75,-1805.76 -676.49,-2859.75l-2.14 -13.12 10.98 7.49c691.11,472.1 1363.76,981.24 2013.61,1535.82 648.89,553.75 1275.12,1152.89 1874.41,1805.9 142.31,-60.89 291.21,-118.79 443.94,-172.75 154.78,-54.67 313.68,-105.38 473.91,-151.23l0.87 3.06c124.51,-469.68 405.33,-958.77 834.62,-1344.61 800.94,-719.88 2118.76,-1080.83 3902.46,-286.94l10.23 4.56 -9.69 5.59c-763.91,441.21 -662.36,542.05 -526.49,676.96 200.35,198.92 472.97,469.67 -1631.29,1908.12 -939.76,642.42 -1621.48,773.08 -2058.44,607.8 -452.98,-171.32 -642.99,-659.82 -585.18,-1226.17l0 -0.03c11.2,-109.66 31.68,-222.24 61.36,-336.01 -158.3,45.38 -315.39,95.58 -468.54,149.68 -153.95,54.38 -303.9,112.72 -447.01,174.04l-3.69 1.59 -2.75 -2.99c-599.77,-653.77 -1226.6,-1253.58 -1876.14,-1807.89 -646.11,-551.38 -1314.74,-1057.78 -2001.61,-1527.53 171.39,1048.11 398.14,1992.56 673.94,2844.93 276.69,855.05 602.76,1617.54 971.88,2299.25 305.65,122.62 627.86,241.44 960.64,364.13 887.9,327.38 1851.16,682.57 2779.11,1213.3 164.12,93.84 280.67,213.46 358.4,345.63 86.64,147.31 125.03,310.24 127.34,470.54 57.11,-33.14 138.15,-57.94 251.44,-74.25 118.57,-17.07 272.88,-25 472.72,-23.77 198.07,-1.22 351.39,6.58 469.5,23.34 114.94,16.32 196.9,41.25 254.56,74.71 2.32,-160.52 40.81,-323.66 127.71,-471.14 77.73,-131.93 194.18,-251.34 358.07,-345.06 927.95,-530.73 1891.21,-885.92 2779.11,-1213.3 332.77,-122.69 654.98,-241.51 960.62,-364.12l2.09 -3.89 1.03 -1.92 0 -0.02c368.53,-681.48 694.08,-1443.65 970.32,-2298.22 275.1,-851.11 501.33,-1793.98 672.4,-2840.15 -686.89,469.74 -1355.5,976.16 -2001.61,1527.54 -649.54,554.31 -1276.37,1154.12 -1876.14,1807.89l-2.75 2.99 -3.69 -1.59c-112.53,-48.21 -229.2,-94.57 -348.64,-138.54 -120.29,-44.32 -243.48,-86.29 -368.13,-125.47l3.39 -10.91c124.87,39.26 248.25,81.3 368.67,125.66 118.36,43.58 233.95,89.48 345.48,137.17 599.28,-652.99 1225.51,-1252.13 1874.39,-1805.88 649.85,-554.58 1322.5,-1063.72 2013.61,-1535.82l10.98 -7.49 -2.14 13.12c-171.42,1052.05 -398.52,1999.77 -674.94,2854.96 -275.63,852.68 -600.33,1613.44 -967.77,2293.9 62.78,-25.24 124.9,-50.73 186.27,-76.41 63.21,-26.44 125.47,-53.1 186.59,-79.92l10.23 -4.49 -2.36 10.91c-163.57,754.04 -410.16,1389.71 -676.78,1896.62 -347.48,660.67 -729.22,1102.92 -1005.82,1303.73 -177.37,744.46 -354.48,1407.36 -531.99,1996.78 -176.85,587.27 -354.21,1101.69 -532.79,1551.25zm-2612.99 2838.8l13.51 1.49 13.51 -1.49 13.71 -1.59 -40.73 1.59zm-13.77 -1.59l13.77 1.59 -13.77 -1.59zm-31.79 -3.97l10.08 1.26 0.87 -2.79c3.39,1.07 6.94,2.09 10.51,3.02 3.45,0.9 6.91,1.74 10.33,2.48l-31.79 -3.97zm-31.34 -4.4c11.05,1.62 21.44,3.1 31.34,4.4l-31.34 -4.4zm-18.91 -2.87l0 -0.01 18.91 2.88 -18.91 -2.87zm-18.25 -2.92l18.25 2.92 -18.25 -2.92zm165.19 11.68c3.55,-0.93 7.07,-1.97 10.46,-3.02l0.87 2.79c7.92,-1 15.82,-2.05 23.69,-3.15 15.42,-2.15 30.45,-4.43 45.08,-6.77l0.56 -0.09 0.06 0 9.22 -1.44c50.23,-18.87 99.13,-50.51 144.06,-91.12 84.24,-76.15 154.52,-183.92 194,-298.7 39.37,-114.48 48.05,-235.9 9.25,-339.63 -15.04,-40.23 -37.25,-77.87 -67.56,-111.39 -37.21,-41.18 -86.79,-76.32 -150.48,-102.74 -59.21,-24.55 -130.73,-41.57 -215.96,-48.88 -6.92,-0.59 -13.78,-1.14 -20.33,-1.58 -6.88,-0.45 -13.7,-0.9 -20.3,-1.2l-0.49 0c-6.59,0.32 -13.36,0.75 -20.25,1.2 -6.57,0.44 -13.37,0.98 -20.29,1.57 -79.52,6.83 -147.1,22.09 -203.89,44.01 -60.68,23.45 -109.21,54.58 -146.86,91.21 -38.55,37.51 -65.83,80.87 -83.37,127.75 -36.57,97.81 -30.96,211.29 2.77,319.88 33.82,108.85 95.92,212.76 172.12,291.09 52.4,53.83 111.42,95.59 172.45,118.53l165.19 11.68zm-4138.3 -9359.37c-34.51,-52.14 -71.06,-107.47 -109.81,-166.79 -38.26,-58.55 -78.49,-120.76 -120.65,-187.02l-0.01 -0.03 -26.87 -42.42 -27.32 -43.43 0 -0.02c-243.47,-388.42 -537.55,-897.69 -856.86,-1584.67 -319.34,-687 -664.01,-1551.88 -1008.76,-2651.59l-6.37 -20.32 15.68 14.41c514.77,473.52 1015.37,964.84 1493.15,1484.59 477.81,519.74 932.88,1068 1356.68,1655.38l3.83 5.3 -5.77 3.06c-45.14,24.11 -127.75,123.12 -221.31,271.57 -79.87,126.68 -167.47,289.12 -246.34,471.55 -18.56,42.95 -36.74,87.17 -54.26,132.42 -16.6,42.85 -32.6,86.66 -47.79,131.21 -29.84,87.53 -56.51,177.53 -78.51,268.55 -20.46,84.58 -36.95,170.25 -48.28,255.83l-2 15.14 -8.43 -12.72zm-100.26 -173.04c35.09,53.71 69.09,105.2 101.45,154.12 11.29,-80.89 27.08,-161.91 46.44,-242 22.1,-91.49 48.86,-181.82 78.78,-269.54 15.15,-44.47 31.24,-88.46 47.97,-131.66 17.45,-45.07 35.69,-89.45 54.44,-132.82 79.14,-183.05 167.02,-346.03 247.15,-473.11 90.93,-144.26 172.31,-242.69 219.98,-272.27 -422.46,-585.01 -876.01,-1131.27 -1352.18,-1649.25 -472.67,-514.19 -967.69,-1000.56 -1476.72,-1469.4 342.45,1089.5 684.63,1947.5 1001.79,2629.82 319.15,686.63 612.94,1195.4 856.14,1583.39l27.32 43.43 26.85 42.4c41.66,65.48 81.95,127.77 120.59,186.89zm2985.37 1693.21c-927.11,-530.25 -1889.9,-885.27 -2777.37,-1212.48 -333.47,-122.96 -656.35,-242.03 -962.85,-365.03 -66.26,-26.59 -131.78,-53.39 -196.39,-80.39 -60.97,-25.5 -121.36,-51.3 -181.15,-77.48 163.35,748.18 408.43,1379.17 673.3,1882.78 347.3,660.33 728.56,1101.65 1004.17,1301.07 29.1,21.06 57.01,39.44 83.48,55.01 26.61,15.66 51.98,28.64 75.81,38.79 399.48,170.27 770.25,281.57 1145.25,309.52 374.85,27.93 754.11,-27.36 1170.64,-190.16 122.34,-47.8 235.57,-165.73 317.24,-320.4 79.37,-150.33 128.87,-335.29 128,-524.34l-0.02 -0.01 0 -0.62 0.02 0c-0.83,-161.65 -38.54,-326.29 -125.87,-474.77 -76.76,-130.51 -191.94,-248.67 -354.26,-341.49zm490.34 894.58c56.93,-35.7 139.41,-62.2 257.13,-79.47 117.14,-17.18 269.59,-25.32 466.95,-24.41l0.02 -0.01 2.28 0 0.02 0.01c195.03,-0.91 346.16,7.03 462.74,23.81 117.11,16.86 199.71,42.72 257.15,77.56l0.36 0.23 3.7 2.24 -5.89 9.73 -4.04 -2.45 -0.69 -0.41 -0.02 -0.01c-56.01,-33.81 -137.03,-58.99 -252.19,-75.57 -104.49,-15.02 -236.95,-22.9 -404.04,-23.68l0 0.48 -28.88 -0.32 -28.2 -0.19 -0.02 0.01 -2.28 0 -0.02 -0.01 -28.24 0.19 -28.9 0.32 0 -0.48c-169.28,0.81 -303,8.86 -408.15,24.28 -116.18,17.05 -197.23,42.98 -252.75,77.79l-6.04 -9.64zm4824.68 -2433.67c33.58,-50.75 68.72,-103.97 104.27,-158.41 39.09,-59.89 80.39,-123.76 123.88,-192.26l30.65 -48.45 31.21 -49.77 -0.02 -0.01c242.86,-388.96 534.87,-897.45 851.4,-1580.8 314.62,-679.15 653.56,-1531.19 992.75,-2610.34 -509.03,468.84 -1004.05,955.2 -1476.72,1469.39 -476.17,517.98 -929.72,1064.24 -1352.18,1649.25 44.82,27.8 119.38,116.34 203.6,246.55 75.66,116.96 159.46,267.77 236.86,438.46 22.77,50.23 45.07,102.28 66.46,155.76 20.2,50.54 39.61,102.41 57.89,155.26 31.12,89.94 58.95,182.71 81.91,276.7 20.09,82.28 36.45,165.54 48.04,248.67zm113.82 -152.19c-40.43,61.9 -77.66,118.28 -112.63,171.11l-8.43 12.72 -2 -15.14c-11.62,-87.81 -28.68,-175.72 -49.89,-262.49 -22.85,-93.57 -50.59,-185.99 -81.6,-275.66 -18.17,-52.54 -37.53,-104.25 -57.72,-154.74 -21.26,-53.18 -43.5,-105.08 -66.27,-155.32 -77.21,-170.25 -160.69,-320.51 -235.99,-436.93 -86.83,-134.23 -162.55,-223.33 -205.02,-245.99l-5.77 -3.06 3.83 -5.3c423.8,-587.38 878.87,-1135.64 1356.68,-1655.38 477.78,-519.75 978.39,-1011.07 1493.15,-1484.59l15.68 -14.41 -6.37 20.32c-341.49,1089.35 -682.92,1948.28 -999.72,2632.13 -316.85,683.99 -609.05,1192.85 -852.05,1582.06l-0.03 0 -31.23 49.8 0 0.01 -30.65 48.51c-42.66,67.19 -84.16,131.36 -123.97,192.35zm-220.37 478.8c-887.47,327.21 -1850.26,682.23 -2777.37,1212.48 -162.08,92.69 -277.17,210.64 -353.93,340.92 -87.33,148.21 -125.14,312.52 -126.2,473.9l0.02 0 0 1.44 -0.02 0.02c-0.06,13.69 0.12,27.47 0.56,41.22 0.44,13.47 1.16,27.14 2.12,40.88l0.04 0.62c12.45,174.99 66.34,342.49 144.9,477.64 79.73,137.19 184.82,240.92 297.62,284.99 416.53,162.8 795.8,218.09 1170.64,190.16 375,-27.95 745.77,-139.25 1145.25,-309.52 23.83,-10.15 49.2,-23.13 75.81,-38.79 26.47,-15.57 54.38,-33.95 83.48,-55.01 275.61,-199.42 656.87,-640.74 1004.17,-1301.07 264.87,-503.6 509.95,-1134.6 673.3,-1882.76 -58.27,25.51 -117.13,50.64 -176.51,75.49 -63.03,26.38 -126.9,52.55 -191.51,78.52l-1.38 0.55 -8.14 3.29c-306.5,123 -629.38,242.07 -962.85,365.03zm-5260.77 -954.42c433.74,164.06 1111.75,33.46 2047.98,-606.54 2092.86,-1430.66 1825.86,-1695.82 1629.67,-1890.61 -141.32,-140.31 -246.99,-245.41 519.06,-689.26 -1773.42,-785.68 -3083.42,-426.36 -3879.9,289.51 -533.96,479.93 -837.24,1120.02 -894.67,1682.56 -57.28,561.23 130.34,1045.07 577.86,1214.34zm6187.58 12707.57l555.42 93.44 320.24 53.89 130.49 21.95 17.99 3.02 0 0.02 0.21 0.03 0.09 0 6.1 1.05 11.89 1.97 0.03 0 442.82 74.48 563.31 94.75 -1.9 11.27 -563.3 -94.75 -442.82 -74.49 -11.91 -1.97 -0.04 0 -6.1 -1.05 0 -0.01 -0.19 -0.03 -0.08 0 -17.99 -3.02 -130.49 -21.96 -320.24 -53.88 -555.42 -93.44 1.89 -11.27zm134.74 861.58l98.64 16.59 620.46 104.39 31.82 5.33 0.03 0 2.8 0.5 6.06 1.02 25.77 4.34 617.42 103.8 87.57 14.73 410.32 -732.07 0.48 -0.89 0.79 -0.66c264.92,-225.67 425.7,-500.42 484.1,-780.57 36.27,-173.96 33.09,-350.08 -9.13,-517.84 -42.2,-167.74 -123.47,-327.21 -243.32,-467.9 -196.58,-230.76 -497.12,-411.16 -899.63,-495.08l-0.04 0 -5.93 -1.29 -6.69 -1.46 -3.05 -0.66 0 -0.01 -2.89 -0.59 0.37 -1.87c-406.01,-51.41 -747.53,20.74 -1007.88,173.95 -158.23,93.09 -286.54,216.18 -381.12,359.65 -94.58,143.45 -155.53,307.41 -179.03,482.23 -38.43,285.82 23.17,600.79 201.12,903.21l0.53 0.9 0.18 0.98 149.56 833.4 0.69 -4.13z"/>
   <path id="_1" class="fil1 str0" d="M15421.97 24458.48l1262.46 -750.65 1.6 -0.96 1.88 0.19 79.57 8.16 36.02 -294.86 -152.02 -847.13c-178.89,-304.46 -240.78,-621.64 -202.08,-909.59 23.73,-176.47 85.28,-342.03 180.83,-486.95 95.54,-144.91 225.12,-269.23 384.88,-363.22 266.07,-156.58 616,-229.19 1032.11,-173.25l2.95 0.33 0.1 0.02 3.08 0.4 -0.49 3.83c403.34,84.78 704.86,266.18 902.43,498.08 121.03,142.07 203.1,303.12 245.73,472.56 42.62,169.41 45.83,347.25 9.22,522.92 -58.84,282.27 -220.62,558.99 -487.06,786.24l-407.83 727.65 2.16 0.36 -1.89 11.26 -6.21 -1.05 -7.06 12.61 -62.01 288.44 -8.76 40.79 9.52 6.11c18.97,12.13 37.44,23.8 55.87,35.44l41.89 26.52c7.23,-56.6 14.5,-114.58 21.67,-173.75 7.46,-61.77 14.79,-123.8 21.91,-185.9 4.11,-35.86 8.18,-71.68 12.13,-107.21 4.07,-36.46 8.02,-72.53 11.87,-108.25l11.35 1.2c-3.95,36.8 -7.93,72.96 -11.86,108.31 -4.03,36.26 -8.1,71.97 -12.14,107.25 -7.19,62.88 -14.52,124.87 -21.91,185.95 -7.21,59.44 -14.67,119.13 -22.36,179.19 60.82,38.85 119.37,77.81 167.49,117.09 106.31,86.82 162.75,175.79 85.5,270.39 -334.55,409.67 -339.52,1007.6 -342.95,1424.24 -2.3,278.24 -3.95,476.67 -104.37,488.58l-251.76 29.87c-60.13,212.91 -124.07,411.37 -191.93,594.86 -68.18,184.34 -140.37,353.68 -216.62,507.45l-319.17 1485.18 -0.11 0.46 -0.18 0.47 -134.02 334.82 -1.72 4.27 -4.52 -0.75 -418.73 -70.47 -6.1 -1.02 -7.21 -1.2 -0.01 0 -6.09 -1.05 0 -0.02 -7.16 -1.15 -0.04 0 -424.83 -71.5 -4.55 -0.77 -0.21 -4.59 -17.09 -360.19 -0.03 -0.53 0.06 -0.43 98.38 -804.96c-115.02,-43.36 -240.73,-100.32 -380.69,-173.13 -141.49,-73.6 -297.95,-163.6 -473.1,-272.23l5.97 -9.7c174.54,108.25 330.77,198.1 472.42,271.78 138.7,72.16 263.14,128.64 376.83,171.63l173.63 -1420.83 -274.54 32.57 -1.23 0.14 -1.23 -0.41 -844.74 -281.58c-6.28,296.11 -6.67,577.59 -1.2,844.3 5.51,268.84 17.03,522.93 34.54,762.17l0.41 5.56 -5.61 0.53c-304.6,28.49 -644.8,28.49 -1041.8,-17.03 -396.92,-45.52 -850.79,-136.59 -1382.86,-290.25l3.18 -10.97c531.37,153.47 984.61,244.42 1380.97,289.86 393.83,45.16 731.51,45.43 1033.89,17.54 -17.27,-237.47 -28.65,-489.89 -34.13,-757.2 -5.5,-267.92 -5.07,-550.73 1.29,-848.28l-65.2 -21.73 3.58 -10.81 61.86 20.62c3.06,-139.76 7.43,-282.67 13.08,-428.73 5.76,-149.04 12.88,-301.32 21.32,-456.74 8.47,-155.63 18.28,-314.4 29.38,-476.25 11.02,-160.37 23.32,-323.8 36.93,-490.21 -65.83,1.24 -129.5,3.27 -191.74,5.8 -63.9,2.58 -126.45,5.73 -188.27,9.16l-9.72 0.54 -8.47 15.56 -10 -5.47 5.09 -9.36c-56.93,3.25 -113.48,6.73 -169.99,10.18 -368.51,22.55 -737.05,45.12 -1282.84,8.6l-9.31 -0.62c-2.4,25.89 -4.97,51.48 -7.74,76.76 -3.04,27.84 -6.27,55.28 -9.64,82.19 -20.5,164.16 -48.71,327.69 -81.98,489.51 -33.23,161.77 -71.51,321.74 -112.14,478.93 -52.18,202.01 -108.23,399.51 -162.48,590.65 -215.43,759.31 -402.61,1419.04 -206,1856.21l4.27 9.51 -10.29 -1.51c-469.71,-68.49 -930.49,-139.39 -1391.25,-210.26 -1515.42,-233.11 -3030.85,-466.22 -4818.33,-608.58l-3.02 -0.26 -1.52 -2.67c-799.29,-1429.37 -1301.37,-2845.29 -1553.11,-4249.8 -251.75,-1404.56 -253.19,-2797.75 -51.23,-4181.57l0.33 -2.2 1.68 -1.39c522.68,-432.74 1097.69,-839.38 1740.93,-1211.85 643.17,-372.43 1354.7,-710.77 2150.49,-1006.94l3.96 10.7c-795.08,295.91 -1506.01,633.96 -2148.71,1006.12 -641.95,371.72 -1215.89,777.52 -1737.67,1209.37 -201.48,1382 -199.93,2773.24 51.45,4175.75 251.37,1402.39 752.59,2816.25 1550.37,4243.56 1786.61,142.45 3301.36,375.45 4816.09,608.44 458.24,70.49 916.51,140.98 1381.03,208.77 -191.48,-440.92 -4.97,-1098.48 209.54,-1854.49 54.26,-191.19 110.31,-388.74 162.42,-590.41 40.61,-157.17 78.86,-316.97 112.02,-478.37 33.16,-161.3 61.32,-324.49 81.8,-488.6 3.47,-27.76 6.7,-55.13 9.64,-82.02 2.81,-25.56 5.35,-50.92 7.66,-75.97 -420.38,-3.23 -799.26,-3.25 -1139.75,-3.25l0 -0.01c-640.78,-0.03 -1145.29,-0.08 -1554.51,-21.82l9.92 16.5 -9.79 5.86 -13.9 -23.11c-1507.92,-82.45 -1715.75,-466.64 -2684.33,-2257.58 -302.19,-558.75 -678.55,-1254.65 -1191.53,-2120.89l9.82 -5.8c513.31,866.82 889.63,1562.62 1191.78,2121.29 964.4,1783.19 1172.72,2168.11 2667.12,2251.11l-3015.69 -5014.86 -2.48 -4.13 3.67 -3.14 949.95 -814.26c-88.63,-65.41 -177.45,-107.06 -266.25,-148.67 -91.25,-42.77 -182.53,-85.56 -273.97,-154.15l-4.73 -3.56 3.71 -4.58c318.93,-394.59 581.44,-938.72 816.68,-1426.38l35.64 -73.82 10.27 4.95 -35.63 73.83c-234.6,486.29 -496.28,1028.71 -814.35,1423.92 88.97,65.84 178.09,107.68 267.22,149.45 91.24,42.78 182.52,85.56 273.97,154.15l5.7 4.26 -5.42 4.64 -951.71 815.76 3017.21 5017.39 6.67 0.36c409.4,21.81 913.97,21.85 1554.96,21.87l0 -0.02c340.37,0 719.31,0.03 1146.06,3.34l0.34 0 0.05 0 5.83 0.04 -0.03 0.35 8.98 0.58 0.01 0c545.12,36.48 913.3,13.94 1281.43,-8.59 58.67,-3.59 117.36,-7.24 177.05,-10.59l24.88 -45.86 0.02 0 26.58 -49.41c247.96,-463.05 521.28,-1027.42 848.19,-1806.17 326.94,-778.79 707.48,-1771.92 1169.8,-3092.25l10.78 3.76c-462.46,1320.71 -843.07,2314.02 -1170.04,3092.91 -327,778.96 -600.5,1343.71 -848.67,1807.14l0 0.02 -26.6 49.44 0 0.03 -21.52 39.67 2.64 -0.15c61.53,-3.41 124.08,-6.56 188.46,-9.16 64.08,-2.58 129.94,-4.64 198.34,-5.89l6.31 -0.12 -0.51 6.28c-13.85,169.1 -26.35,334.55 -37.47,496.31 -11.13,162.3 -20.95,321.02 -29.37,476.07 -8.46,155.72 -15.58,307.94 -21.33,456.56 -5.71,147.44 -10.09,291.51 -13.14,432.12l846.8 282.26 1579.95 -187.45 431.95 -51.24c90.43,-10.73 92.05,-204.97 94.31,-477.32 3.44,-418.29 8.42,-1018.61 345.5,-1431.36 71.59,-87.66 17.33,-171.69 -83.85,-254.32 -61.55,-50.26 -140.23,-99.95 -218.9,-149.62 -18.96,-11.98 -37.99,-24 -55.94,-35.47l-0.01 0 -5.94 -3.81 -0.33 1.56 -11.17 -2.38 1.25 -5.79c-39.44,-25.46 -77.52,-50.97 -112.08,-76.7 -34.89,-25.99 -66.15,-52.19 -91.32,-78.57l-1326.74 -136.08 -1260.86 749.69 -5.79 -9.82zm1356.89 -742.09l1239.75 127.15 2.11 0.21 1.47 1.57c24.94,26.41 56.23,52.66 91.28,78.78 33.14,24.69 69.83,49.3 107.86,73.92l7.83 -36.53 62.19 -289.3 0.18 -0.87 0.42 -0.74 5.49 -9.77 -83.53 -14.04 -617.42 -103.81 -25.77 -4.34 -6.1 -1.02 -0.03 0 -2.79 -0.49 -31.79 -5.34 -620.46 -104.39 -96.09 -16.15 1.44 8 0.15 0.89 -0.09 0.81 -36.1 295.46zm1112.27 2694.76l-163.83 19.43 -222.4 1034.81c68.62,-142.24 133.91,-297.27 195.88,-464.78 67.28,-181.92 130.68,-378.58 190.35,-589.46zm-175.83 20.86l-1286.99 152.7 -174.86 1430.81 -98.87 808.94 16.84 355.08 420.29 70.73 7.18 1.18 0.06 0 6.08 1.05 7.19 1.2 6.1 1.02 414.19 69.7 132.13 -330.08 319.22 -1485.4 231.44 -1076.93zm-4809.88 -7050.95c-238.76,793.13 -423.54,1613.22 -562.8,2455.93 -139.28,842.78 -233.1,1708.45 -289.98,2592.64l-11.42 -0.72c56.9,-884.4 150.78,-1750.44 290.13,-2593.75 139.37,-843.37 324.25,-1663.95 563.11,-2457.37l10.96 3.27zm1395.01 -2395.57l21.93 6.22 24.45 6.92c178.49,-449.27 355.88,-963.74 532.85,-1551.4 176.38,-585.73 352.41,-1244.19 528.75,-1983.32 -24.89,17.54 -48.9,33.1 -71.95,46.67 -27.19,16 -52.97,29.21 -77.11,39.48 -400.6,170.77 -772.53,282.37 -1148.88,310.42 -376.48,28.06 -757.35,-27.46 -1175.63,-190.93 -115.27,-45.04 -222.38,-150.56 -303.36,-289.89 -79.38,-136.58 -133.84,-305.83 -146.42,-482.57l-0.05 -0.62 0 -0.03c-0.94,-13.53 -1.66,-27.33 -2.11,-41.3 -0.42,-12.73 -0.62,-25.53 -0.59,-38.38l-0.24 -0.15 -0.61 -0.36 -0.09 -0.09c-56.52,-34.06 -138.41,-59.41 -255.07,-75.98 -107.59,-15.26 -244.62,-23.02 -418.23,-23.32l0 0.52 -25.11 -0.27 -24.6 -0.18 -24.63 0.18 -25.14 0.27 0 -0.52c-175.29,0.31 -313.23,8.2 -421.32,23.76 -115.64,16.65 -196.89,42.06 -252.95,76.14 0.42,190.05 -49.5,375.89 -129.32,527.06 -82.91,157.02 -198.24,276.9 -323.18,325.73 -418.28,163.47 -799.15,218.99 -1175.63,190.93 -376.35,-28.05 -748.28,-139.65 -1148.88,-310.42 -24.14,-10.27 -49.92,-23.48 -77.1,-39.48 -23.06,-13.56 -47.06,-29.12 -71.94,-46.66 151.8,636.29 303.33,1212.59 455,1733.98 152.92,525.64 306.09,995.85 459.96,1415.79l2.8 7.57c318.03,866.68 639.11,1518.64 967.48,2001.33 327.21,480.96 661.65,793.9 1007.54,983.88l-6.47 -20.59 -10.83 -34.12 10.88 -3.46 10.84 34.15 0.02 0.03 10.01 31.84c100.04,53.9 201.06,97.71 303.09,132.35 87.8,29.8 176.4,52.87 265.89,69.85 -47.48,-24.66 -92.97,-59.79 -134.32,-102.29 -77.41,-79.58 -140.5,-185.14 -174.85,-295.68 -34.42,-110.82 -40.08,-226.88 -2.57,-327.21 18.13,-48.45 46.32,-93.23 86.12,-131.96 38.73,-37.68 88.51,-69.66 150.7,-93.67 57.88,-22.36 126.52,-37.89 207.07,-44.8l0.45 -0.07 0.04 -3.98c7.18,0.09 14.19,0.27 21.01,0.48 6.92,0.22 13.73,0.48 20.29,0.78 13.31,-0.62 26.97,-1.08 41.12,-1.26l0.04 3.99 0.57 0.08c86.4,7.42 159.07,24.73 219.42,49.75 65.26,27.06 116.17,63.21 154.53,105.65 31.33,34.66 54.29,73.53 69.82,115.05 39.8,106.42 31.02,230.51 -9.13,347.32 -40.07,116.5 -111.51,225.96 -197.19,303.42 -33.29,30.08 -68.79,55.34 -105.41,74.37 416.09,-78.96 813.74,-288.72 1199.37,-699.2 400.2,-426 787.6,-1068.18 1169.4,-2004.45l0.01 0 6.36 -15.81 4.38 -10.91 -6.5 -21.08 -11.78 -38.25 10.91 -3.37 11.77 38.26 2.37 7.65 7.54 -18.71 13.55 -33.89 0 -0.02 2.99 -7.42 -23.29 -6.59 -21.93 -6.22 3.09 -10.99zm57.4 16.26c867.07,246.45 1643.2,538.5 2352.86,863.73 711.29,325.94 1355.94,685.31 1958.66,1065.56l2.72 1.71 -0.04 3.2c-6.1,333.8 -14.12,660.35 -24.06,979.34 -9.94,319.25 -21.87,630.99 -35.77,934.87l-11.42 -0.49c13.92,-304.12 25.85,-615.8 35.77,-934.68 9.93,-318.09 17.94,-643.54 24,-976.04 -601.54,-379.35 -1244.86,-737.87 -1954.6,-1063.11 -709.4,-325.11 -1485.33,-617.04 -2352.35,-863.42l-3.43 8.53 -13.54 33.89 0 0.02 -12.81 31.77c166.3,537.57 321.71,965.92 466.15,1284.98 144.31,318.77 277.58,528.15 399.67,628.06l6.16 5.05 -6.76 4.23 -808.98 505.62 1012.65 371.3 4.55 1.67 -0.9 4.75c-156.42,820.59 -368.37,1613.5 -648.54,2372.28 -280.18,758.77 -628.68,1483.52 -1058.28,2167.73l-9.64 -6.06c429.1,-683.44 777.24,-1407.46 1057.19,-2165.61 279.41,-756.7 490.89,-1547.41 647.12,-2365.7l-1019.05 -373.66 -10.96 -4.02 9.91 -6.19 812.18 -507.62c-121.8,-102.92 -254.07,-311.97 -396.74,-627.15 -143.39,-316.72 -297.58,-741.05 -462.49,-1272.87l-5.5 13.69 0 0.03c-382.35,937.61 -770.49,1580.91 -1171.68,2007.96 -401.47,427.36 -816.05,638.23 -1250.95,710.75l-0.79 0.3 -0.03 0c-2.71,1.02 -5.48,2.06 -8.24,2.99l0 0.01c-12.13,4.13 -24.39,7.54 -36.63,10.17 11.38,0.8 22.75,1.5 33.9,2.09l-0.57 11.41c-16.01,-0.81 -31.78,-1.83 -47.27,-3 -14.85,-1.11 -30.39,-2.5 -46.52,-4.01l0 0.01 -0.17 -0.01 -0.13 -0.02c-4,0 -8.08,-0.1 -12.21,-0.33l-0.03 0c-3.77,-0.18 -7.79,-0.55 -11.88,-0.93l-0.09 0c-4.08,0.38 -8.06,0.75 -11.85,0.95 -4.13,0.21 -8.24,0.31 -12.21,0.31l-0.22 0.02 -0.09 0.01 0 -0.01c-13.62,1.27 -26.5,2.39 -38.76,3.32 -12.8,0.96 -25.94,1.86 -39.31,2.67l-6.78 0.48 -0.03 0 -8.07 0.54 -0.37 0.02 -0.28 0 -0.22 0 -0.27 0 0 -11.45 0.27 0 0.22 0 0.13 0 7.8 -0.52 6.79 -0.48 0.08 0 17.54 -1.18c-3.34,-0.72 -6.64,-1.45 -9.96,-2.29 -5.84,-1.47 -11.8,-3.22 -17.76,-5.11l-0.02 0c-5.56,-1.77 -11.23,-3.78 -16.92,-5.9 -105.49,-17.57 -209.82,-43.39 -313.05,-78.42 -99.16,-33.69 -197.35,-75.93 -294.58,-127.63 412.47,1317.6 563.19,2467.3 698.2,3497.32 34.75,265.08 68.48,522.29 105.5,773.43 14.21,96.3 28.79,191.01 43.91,283.87 15.23,93.5 31.19,186.15 48.1,277.89l-11.23 2.04c-16.9,-91.62 -32.86,-184.33 -48.13,-278.1 -15.38,-94.4 -29.96,-189.01 -43.98,-284.05 -36.8,-249.7 -70.64,-507.7 -105.5,-773.61 -135.31,-1032.43 -286.42,-2185.19 -701.22,-3506.51l-7.53 -4.08c-348.46,-190.67 -685.19,-505.17 -1014.39,-989.08 -328.93,-483.5 -650.43,-1136.26 -968.78,-2003.78l-2.79 -7.57c-153.93,-420.14 -307.21,-890.61 -460.21,-1416.55 -152.88,-525.53 -305.51,-1106.27 -458.25,-1747.36 -276.6,-200.81 -658.34,-643.06 -1005.82,-1303.73 -266.62,-506.91 -513.21,-1142.58 -676.78,-1896.62l-2.36 -10.91 10.23 4.49c62.64,27.49 126.45,54.8 191.23,81.89 59.85,25.02 120.46,49.86 181.63,74.49 -366.75,-679.2 -690.94,-1438.4 -966.22,-2289.16 -277.12,-856.44 -504.75,-1805.76 -676.49,-2859.75l-2.14 -13.12 10.98 7.49c691.11,472.1 1363.76,981.24 2013.61,1535.82 648.89,553.75 1275.12,1152.89 1874.41,1805.9 142.31,-60.89 291.21,-118.79 443.94,-172.75 154.78,-54.67 313.68,-105.38 473.91,-151.23l0.87 3.06c124.51,-469.68 405.33,-958.77 834.62,-1344.61 800.94,-719.88 2118.76,-1080.83 3902.46,-286.94l10.23 4.56 -9.69 5.59c-763.91,441.21 -662.36,542.05 -526.49,676.96 200.35,198.92 472.97,469.67 -1631.29,1908.12 -939.76,642.42 -1621.48,773.08 -2058.44,607.8 -452.98,-171.32 -642.99,-659.82 -585.18,-1226.17l0 -0.03c11.2,-109.66 31.68,-222.24 61.36,-336.01 -158.3,45.38 -315.39,95.58 -468.54,149.68 -153.95,54.38 -303.9,112.72 -447.01,174.04l-3.69 1.59 -2.75 -2.99c-599.77,-653.77 -1226.6,-1253.58 -1876.14,-1807.89 -646.11,-551.38 -1314.74,-1057.78 -2001.61,-1527.53 171.39,1048.11 398.14,1992.56 673.94,2844.93 276.69,855.05 602.76,1617.54 971.88,2299.25 305.65,122.62 627.86,241.44 960.64,364.13 887.9,327.38 1851.16,682.57 2779.11,1213.3 164.12,93.84 280.67,213.46 358.4,345.63 86.64,147.31 125.03,310.24 127.34,470.54 57.11,-33.14 138.15,-57.94 251.44,-74.25 118.57,-17.07 272.88,-25 472.72,-23.77 198.07,-1.22 351.39,6.58 469.5,23.34 114.94,16.32 196.9,41.25 254.56,74.71 2.32,-160.52 40.81,-323.66 127.71,-471.14 77.73,-131.93 194.18,-251.34 358.07,-345.06 927.95,-530.73 1891.21,-885.92 2779.11,-1213.3 332.77,-122.69 654.98,-241.51 960.62,-364.12l2.09 -3.89 1.03 -1.92 0 -0.02c368.53,-681.48 694.08,-1443.65 970.32,-2298.22 275.1,-851.11 501.33,-1793.98 672.4,-2840.15 -686.89,469.74 -1355.5,976.16 -2001.61,1527.54 -649.54,554.31 -1276.37,1154.12 -1876.14,1807.89l-2.75 2.99 -3.69 -1.59c-112.53,-48.21 -229.2,-94.57 -348.64,-138.54 -120.29,-44.32 -243.48,-86.29 -368.13,-125.47l3.39 -10.91c124.87,39.26 248.25,81.3 368.67,125.66 118.36,43.58 233.95,89.48 345.48,137.17 599.28,-652.99 1225.51,-1252.13 1874.39,-1805.88 649.85,-554.58 1322.5,-1063.72 2013.61,-1535.82l10.98 -7.49 -2.14 13.12c-171.42,1052.05 -398.52,1999.77 -674.94,2854.96 -275.63,852.68 -600.33,1613.44 -967.77,2293.9 62.78,-25.24 124.9,-50.73 186.27,-76.41 63.21,-26.44 125.47,-53.1 186.59,-79.92l10.23 -4.49 -2.36 10.91c-163.57,754.04 -410.16,1389.71 -676.78,1896.62 -347.48,660.67 -729.22,1102.92 -1005.82,1303.73 -177.37,744.46 -354.48,1407.36 -531.99,1996.78 -176.85,587.27 -354.21,1101.69 -532.79,1551.25zm-2612.99 2838.8l13.51 1.49 13.51 -1.49 13.71 -1.59m-54.5 0l13.77 1.59m-45.56 -5.56l10.08 1.26 0.87 -2.79c3.39,1.07 6.94,2.09 10.51,3.02 3.45,0.9 6.91,1.74 10.33,2.48m-63.13 -8.37c11.05,1.62 21.44,3.1 31.34,4.4m-50.25 -7.27l0 -0.01 18.91 2.88m-37.16 -5.79l18.25 2.92m146.94 8.76c3.55,-0.93 7.07,-1.97 10.46,-3.02l0.87 2.79c7.92,-1 15.82,-2.05 23.69,-3.15 15.42,-2.15 30.45,-4.43 45.08,-6.77l0.56 -0.09 0.06 0 9.22 -1.44c50.23,-18.87 99.13,-50.51 144.06,-91.12 84.24,-76.15 154.52,-183.92 194,-298.7 39.37,-114.48 48.05,-235.9 9.25,-339.63 -15.04,-40.23 -37.25,-77.87 -67.56,-111.39 -37.21,-41.18 -86.79,-76.32 -150.48,-102.74 -59.21,-24.55 -130.73,-41.57 -215.96,-48.88 -6.92,-0.59 -13.78,-1.14 -20.33,-1.58 -6.88,-0.45 -13.7,-0.9 -20.3,-1.2l-0.49 0c-6.59,0.32 -13.36,0.75 -20.25,1.2 -6.57,0.44 -13.37,0.98 -20.29,1.57 -79.52,6.83 -147.1,22.09 -203.89,44.01 -60.68,23.45 -109.21,54.58 -146.86,91.21 -38.55,37.51 -65.83,80.87 -83.37,127.75 -36.57,97.81 -30.96,211.29 2.77,319.88 33.82,108.85 95.92,212.76 172.12,291.09 52.4,53.83 111.42,95.59 172.45,118.53m-3973.11 -9347.69c-34.51,-52.14 -71.06,-107.47 -109.81,-166.79 -38.26,-58.55 -78.49,-120.76 -120.65,-187.02l-0.01 -0.03 -26.87 -42.42 -27.32 -43.43 0 -0.02c-243.47,-388.42 -537.55,-897.69 -856.86,-1584.67 -319.34,-687 -664.01,-1551.88 -1008.76,-2651.59l-6.37 -20.32 15.68 14.41c514.77,473.52 1015.37,964.84 1493.15,1484.59 477.81,519.74 932.88,1068 1356.68,1655.38l3.83 5.3 -5.77 3.06c-45.14,24.11 -127.75,123.12 -221.31,271.57 -79.87,126.68 -167.47,289.12 -246.34,471.55 -18.56,42.95 -36.74,87.17 -54.26,132.42 -16.6,42.85 -32.6,86.66 -47.79,131.21 -29.84,87.53 -56.51,177.53 -78.51,268.55 -20.46,84.58 -36.95,170.25 -48.28,255.83l-2 15.14 -8.43 -12.72zm-100.26 -173.04c35.09,53.71 69.09,105.2 101.45,154.12 11.29,-80.89 27.08,-161.91 46.44,-242 22.1,-91.49 48.86,-181.82 78.78,-269.54 15.15,-44.47 31.24,-88.46 47.97,-131.66 17.45,-45.07 35.69,-89.45 54.44,-132.82 79.14,-183.05 167.02,-346.03 247.15,-473.11 90.93,-144.26 172.31,-242.69 219.98,-272.27 -422.46,-585.01 -876.01,-1131.27 -1352.18,-1649.25 -472.67,-514.19 -967.69,-1000.56 -1476.72,-1469.4 342.45,1089.5 684.63,1947.5 1001.79,2629.82 319.15,686.63 612.94,1195.4 856.14,1583.39l27.32 43.43 26.85 42.4c41.66,65.48 81.95,127.77 120.59,186.89zm2985.37 1693.21c-927.11,-530.25 -1889.9,-885.27 -2777.37,-1212.48 -333.47,-122.96 -656.35,-242.03 -962.85,-365.03 -66.26,-26.59 -131.78,-53.39 -196.39,-80.39 -60.97,-25.5 -121.36,-51.3 -181.15,-77.48 163.35,748.18 408.43,1379.17 673.3,1882.78 347.3,660.33 728.56,1101.65 1004.17,1301.07 29.1,21.06 57.01,39.44 83.48,55.01 26.61,15.66 51.98,28.64 75.81,38.79 399.48,170.27 770.25,281.57 1145.25,309.52 374.85,27.93 754.11,-27.36 1170.64,-190.16 122.34,-47.8 235.57,-165.73 317.24,-320.4 79.37,-150.33 128.87,-335.29 128,-524.34l-0.02 -0.01 0 -0.62 0.02 0c-0.83,-161.65 -38.54,-326.29 -125.87,-474.77 -76.76,-130.51 -191.94,-248.67 -354.26,-341.49zm490.34 894.58c56.93,-35.7 139.41,-62.2 257.13,-79.47 117.14,-17.18 269.59,-25.32 466.95,-24.41l0.02 -0.01 2.28 0 0.02 0.01c195.03,-0.91 346.16,7.03 462.74,23.81 117.11,16.86 199.71,42.72 257.15,77.56l0.36 0.23 3.7 2.24 -5.89 9.73 -4.04 -2.45 -0.69 -0.41 -0.02 -0.01c-56.01,-33.81 -137.03,-58.99 -252.19,-75.57 -104.49,-15.02 -236.95,-22.9 -404.04,-23.68l0 0.48 -28.88 -0.32 -28.2 -0.19 -0.02 0.01 -2.28 0 -0.02 -0.01 -28.24 0.19 -28.9 0.32 0 -0.48c-169.28,0.81 -303,8.86 -408.15,24.28 -116.18,17.05 -197.23,42.98 -252.75,77.79l-6.04 -9.64zm4824.68 -2433.67c33.58,-50.75 68.72,-103.97 104.27,-158.41 39.09,-59.89 80.39,-123.76 123.88,-192.26l30.65 -48.45 31.21 -49.77 -0.02 -0.01c242.86,-388.96 534.87,-897.45 851.4,-1580.8 314.62,-679.15 653.56,-1531.19 992.75,-2610.34 -509.03,468.84 -1004.05,955.2 -1476.72,1469.39 -476.17,517.98 -929.72,1064.24 -1352.18,1649.25 44.82,27.8 119.38,116.34 203.6,246.55 75.66,116.96 159.46,267.77 236.86,438.46 22.77,50.23 45.07,102.28 66.46,155.76 20.2,50.54 39.61,102.41 57.89,155.26 31.12,89.94 58.95,182.71 81.91,276.7 20.09,82.28 36.45,165.54 48.04,248.67zm113.82 -152.19c-40.43,61.9 -77.66,118.28 -112.63,171.11l-8.43 12.72 -2 -15.14c-11.62,-87.81 -28.68,-175.72 -49.89,-262.49 -22.85,-93.57 -50.59,-185.99 -81.6,-275.66 -18.17,-52.54 -37.53,-104.25 -57.72,-154.74 -21.26,-53.18 -43.5,-105.08 -66.27,-155.32 -77.21,-170.25 -160.69,-320.51 -235.99,-436.93 -86.83,-134.23 -162.55,-223.33 -205.02,-245.99l-5.77 -3.06 3.83 -5.3c423.8,-587.38 878.87,-1135.64 1356.68,-1655.38 477.78,-519.75 978.39,-1011.07 1493.15,-1484.59l15.68 -14.41 -6.37 20.32c-341.49,1089.35 -682.92,1948.28 -999.72,2632.13 -316.85,683.99 -609.05,1192.85 -852.05,1582.06l-0.03 0 -31.23 49.8 0 0.01 -30.65 48.51c-42.66,67.19 -84.16,131.36 -123.97,192.35zm-220.37 478.8c-887.47,327.21 -1850.26,682.23 -2777.37,1212.48 -162.08,92.69 -277.17,210.64 -353.93,340.92 -87.33,148.21 -125.14,312.52 -126.2,473.9l0.02 0 0 1.44 -0.02 0.02c-0.06,13.69 0.12,27.47 0.56,41.22 0.44,13.47 1.16,27.14 2.12,40.88l0.04 0.62c12.45,174.99 66.34,342.49 144.9,477.64 79.73,137.19 184.82,240.92 297.62,284.99 416.53,162.8 795.8,218.09 1170.64,190.16 375,-27.95 745.77,-139.25 1145.25,-309.52 23.83,-10.15 49.2,-23.13 75.81,-38.79 26.47,-15.57 54.38,-33.95 83.48,-55.01 275.61,-199.42 656.87,-640.74 1004.17,-1301.07 264.87,-503.6 509.95,-1134.6 673.3,-1882.76 -58.27,25.51 -117.13,50.64 -176.51,75.49 -63.03,26.38 -126.9,52.55 -191.51,78.52l-1.38 0.55 -8.14 3.29c-306.5,123 -629.38,242.07 -962.85,365.03zm-5260.77 -954.42c433.74,164.06 1111.75,33.46 2047.98,-606.54 2092.86,-1430.66 1825.86,-1695.82 1629.67,-1890.61 -141.32,-140.31 -246.99,-245.41 519.06,-689.26 -1773.42,-785.68 -3083.42,-426.36 -3879.9,289.51 -533.96,479.93 -837.24,1120.02 -894.67,1682.56 -57.28,561.23 130.34,1045.07 577.86,1214.34zm6187.58 12707.57l555.42 93.44 320.24 53.89 130.49 21.95 17.99 3.02 0 0.02 0.21 0.03 0.09 0 6.1 1.05 11.89 1.97 0.03 0 442.82 74.48 563.31 94.75 -1.9 11.27 -563.3 -94.75 -442.82 -74.49 -11.91 -1.97 -0.04 0 -6.1 -1.05 0 -0.01 -0.19 -0.03 -0.08 0 -17.99 -3.02 -130.49 -21.96 -320.24 -53.88 -555.42 -93.44 1.89 -11.27zm134.74 861.58l98.64 16.59 620.46 104.39 31.82 5.33 0.03 0 2.8 0.5 6.06 1.02 25.77 4.34 617.42 103.8 87.57 14.73 410.32 -732.07 0.48 -0.89 0.79 -0.66c264.92,-225.67 425.7,-500.42 484.1,-780.57 36.27,-173.96 33.09,-350.08 -9.13,-517.84 -42.2,-167.74 -123.47,-327.21 -243.32,-467.9 -196.58,-230.76 -497.12,-411.16 -899.63,-495.08l-0.04 0 -5.93 -1.29 -6.69 -1.46 -3.05 -0.66 0 -0.01 -2.89 -0.59 0.37 -1.87c-406.01,-51.41 -747.53,20.74 -1007.88,173.95 -158.23,93.09 -286.54,216.18 -381.12,359.65 -94.58,143.45 -155.53,307.41 -179.03,482.23 -38.43,285.82 23.17,600.79 201.12,903.21l0.53 0.9 0.18 0.98 149.56 833.4 0.69 -4.13z"/>
  </g>
 </g>
</svg>
