<?xml version="1.0" encoding="UTF-8"?>
<!DOCTYPE svg PUBLIC "-//W3C//DTD SVG 1.1//EN" "http://www.w3.org/Graphics/SVG/1.1/DTD/svg11.dtd">
<!-- Creator: CorelDRAW -->
<svg xmlns="http://www.w3.org/2000/svg" xml:space="preserve" width="210mm" height="297mm" version="1.1" style="shape-rendering:geometricPrecision; text-rendering:geometricPrecision; image-rendering:optimizeQuality; fill-rule:evenodd; clip-rule:evenodd"
viewBox="0 0 21000 29700"
 xmlns:xlink="http://www.w3.org/1999/xlink"
 xmlns:xodm="http://www.corel.com/coreldraw/odm/2003">
 <defs>
  <style type="text/css">
   <![CDATA[
    .str0 {stroke:#332D2B;stroke-width:35.28;stroke-miterlimit:22.9256}
    .fil1 {fill:none;fill-rule:nonzero}
    .fil0 {fill:#332D2B;fill-rule:nonzero}
   ]]>
  </style>
 </defs>
 <g id="图层_x0020_4">
  <metadata id="CorelCorpID_0Corel-Layer"/>
  <g>
   <path class="fil0" d="M14284.75 23978.47l1386.68 -824.51 1.76 -1.05 2.06 0.21 87.4 8.96 39.57 -323.87 -166.98 -930.48c-196.5,-334.41 -264.47,-682.8 -221.97,-999.08 26.07,-193.84 93.68,-375.68 198.63,-534.86 104.94,-159.17 247.26,-295.72 422.74,-398.96 292.25,-171.99 676.61,-251.74 1133.67,-190.3l3.23 0.37 0.12 0.01 3.38 0.45 -0.55 4.21c443.04,93.11 774.22,292.36 991.23,547.08 132.94,156.05 223.09,332.95 269.9,519.05 46.81,186.08 50.34,381.42 10.13,574.37 -64.63,310.05 -242.32,613.99 -534.98,863.6l-447.95 799.24 2.37 0.4 -2.08 12.37 -6.83 -1.16 -7.75 13.86 -68.11 316.81 -9.61 44.8 10.45 6.72c20.84,13.33 41.13,26.14 61.37,38.93l46 29.13c7.95,-62.17 15.94,-125.86 23.81,-190.85 8.19,-67.85 16.24,-135.98 24.06,-204.19 4.52,-39.39 8.99,-78.73 13.33,-117.76 4.47,-40.05 8.81,-79.67 13.03,-118.9l12.47 1.32c-4.34,40.42 -8.71,80.14 -13.03,118.97 -4.42,39.82 -8.89,79.05 -13.33,117.79 -7.9,69.07 -15.95,137.16 -24.06,204.25 -7.92,65.29 -16.12,130.86 -24.57,196.82 66.81,42.68 131.13,85.47 183.98,128.62 116.77,95.36 178.76,193.08 93.91,296.98 -367.47,449.98 -372.93,1106.75 -376.69,1564.38 -2.53,305.61 -4.34,523.57 -114.65,536.65l-276.53 32.81c-66.04,233.85 -136.27,451.84 -210.81,653.38 -74.89,202.48 -154.18,388.49 -237.93,557.38l-350.58 1631.3 -0.11 0.52 -0.2 0.51 -147.21 367.76 -1.89 4.69 -4.97 -0.83 -459.92 -77.39 -6.7 -1.13 -7.92 -1.31 -0.02 0 -6.68 -1.16 0 -0.02 -7.86 -1.27 -0.05 0 -466.63 -78.53 -5 -0.84 -0.23 -5.05 -18.77 -395.63 -0.03 -0.57 0.07 -0.48 108.06 -884.16c-126.34,-47.62 -264.43,-110.19 -418.15,-190.16 -155.42,-80.84 -327.27,-179.7 -519.65,-299.01l6.56 -10.66c191.71,118.9 363.32,217.59 518.9,298.52 152.35,79.26 289.03,141.3 413.9,188.51l190.72 -1560.62 -301.55 35.78 -1.35 0.15 -1.35 -0.45 -927.86 -309.29c-6.89,325.25 -7.32,634.42 -1.32,927.38 6.06,295.28 18.71,574.37 37.94,837.16l0.45 6.1 -6.15 0.58c-334.58,31.29 -708.25,31.29 -1144.31,-18.71 -435.97,-49.99 -934.5,-150.02 -1518.92,-318.8l3.5 -12.04c583.64,168.56 1081.47,268.46 1516.84,318.37 432.58,49.61 803.48,49.9 1135.61,19.27 -18.97,-260.84 -31.47,-538.1 -37.49,-831.7 -6.04,-294.28 -5.56,-604.92 1.42,-931.75l-71.61 -23.86 3.92 -11.88 67.95 22.65c3.36,-153.51 8.16,-310.48 14.37,-470.91 6.33,-163.71 14.15,-330.97 23.42,-501.68 9.3,-170.94 20.08,-345.33 32.27,-523.1 12.1,-176.16 25.61,-355.66 40.56,-538.45 -72.3,1.37 -142.24,3.6 -210.6,6.37 -70.19,2.84 -138.89,6.3 -206.8,10.06l-10.68 0.59 -9.3 17.09 -10.98 -6 5.59 -10.28c-62.54,3.57 -124.64,7.39 -186.71,11.19 -404.77,24.76 -809.57,49.55 -1409.06,9.43l-10.23 -0.67c-2.64,28.43 -5.46,56.54 -8.49,84.3 -3.35,30.59 -6.9,60.72 -10.59,90.28 -22.52,180.32 -53.52,359.93 -90.05,537.67 -36.51,177.69 -78.55,353.4 -123.18,526.06 -57.32,221.88 -118.88,438.81 -178.46,648.76 -236.63,834.01 -442.23,1558.66 -226.27,2038.84l4.69 10.44 -11.3 -1.65c-515.93,-75.23 -1022.04,-153.11 -1528.14,-230.95 -1664.52,-256.04 -3329.05,-512.08 -5292.4,-668.46l-3.32 -0.28 -1.66 -2.94c-877.94,-1570 -1429.42,-3125.22 -1705.93,-4667.93 -276.51,-1542.75 -278.1,-3073.02 -56.26,-4592.99l0.36 -2.41 1.85 -1.53c574.1,-475.32 1205.68,-921.97 1912.21,-1331.09 706.46,-409.07 1487.99,-780.69 2362.07,-1106l4.36 11.74c-873.31,325.03 -1654.19,696.34 -2360.12,1105.12 -705.12,408.29 -1335.53,854.02 -1908.64,1328.36 -221.31,1517.98 -219.61,3046.1 56.51,4586.59 276.1,1540.38 826.64,3093.34 1702.91,4661.09 1962.4,156.46 3626.18,412.38 5289.94,668.29 503.33,77.43 1006.68,154.86 1516.9,229.32 -210.31,-484.3 -5.45,-1206.56 230.17,-2036.95 59.59,-210.01 121.16,-426.99 178.39,-648.51 44.61,-172.62 86.62,-348.15 123.04,-525.42 36.43,-177.18 67.35,-356.42 89.85,-536.68 3.81,-30.49 7.36,-60.56 10.59,-90.09 3.09,-28.07 5.88,-55.93 8.42,-83.45 -461.74,-3.54 -877.91,-3.56 -1251.89,-3.56l0 -0.02c-703.83,-0.03 -1257.98,-0.08 -1707.46,-23.96l10.9 18.12 -10.75 6.44 -15.28 -25.39c-1656.27,-90.56 -1884.55,-512.55 -2948.43,-2479.69 -331.92,-613.73 -745.31,-1378.1 -1308.76,-2329.57l10.78 -6.37c563.82,952.1 977.16,1716.37 1309.03,2330 1059.29,1958.63 1288.12,2381.43 2929.55,2472.6l-3312.41 -5508.28 -2.72 -4.53 4.03 -3.45 1043.42 -894.37c-97.36,-71.85 -194.91,-117.59 -292.45,-163.3 -100.23,-46.98 -200.49,-93.98 -300.93,-169.31l-5.19 -3.91 4.07 -5.03c350.32,-433.42 638.66,-1031.08 897.04,-1566.72l39.14 -81.09 11.29 5.44 -39.15 81.09c-257.67,534.14 -545.11,1129.92 -894.46,1564.02 97.72,72.31 195.6,118.27 293.5,164.16 100.23,46.98 200.49,93.97 300.93,169.31l6.27 4.68 -5.96 5.1 -1045.35 896.02 3314.07 5511.04 7.32 0.4c449.69,23.95 1003.9,24 1707.96,24.02l0 -0.02c373.85,0 790.08,0.03 1258.82,3.66l0.37 0 0.05 0 6.4 0.05 -0.03 0.38 9.87 0.65 0.01 0c598.75,40.06 1003.16,15.3 1407.51,-9.44 64.45,-3.94 128.91,-7.95 194.46,-11.63l27.34 -50.38 0.01 0 29.2 -54.27c272.36,-508.6 572.57,-1128.5 931.65,-1983.87 359.1,-855.42 777.08,-1946.27 1284.89,-3396.5l11.85 4.13c-507.96,1450.66 -926.02,2541.7 -1285.16,3397.22 -359.17,855.6 -659.59,1475.91 -932.18,1984.95l0 0.01 -29.21 54.3 0 0.04 -23.64 43.58 2.9 -0.17c67.59,-3.74 136.29,-7.2 207.01,-10.06 70.38,-2.84 142.71,-5.1 217.85,-6.46l6.93 -0.14 -0.56 6.9c-15.21,185.74 -28.95,367.47 -41.16,545.14 -12.22,178.27 -23.01,352.61 -32.26,522.91 -9.29,171.04 -17.11,338.24 -23.43,501.47 -6.26,161.96 -11.08,320.2 -14.43,474.64l930.11 310.04 1735.41 -205.9 474.44 -56.28c99.33,-11.78 101.12,-225.13 103.59,-524.28 3.78,-459.45 9.25,-1118.83 379.49,-1572.2 78.64,-96.28 19.04,-188.57 -92.09,-279.33 -67.61,-55.21 -154.03,-109.79 -240.44,-164.34 -20.83,-13.17 -41.73,-26.36 -61.44,-38.97l-0.02 0 -6.52 -4.19 -0.36 1.72 -12.27 -2.61 1.37 -6.36c-43.32,-27.96 -85.15,-55.99 -123.11,-84.25 -38.32,-28.55 -72.66,-57.32 -100.31,-86.3l-1457.27 -149.47 -1384.91 823.46 -6.37 -10.79zm1490.4 -815.11l1361.73 139.67 2.31 0.23 1.62 1.72c27.4,29.01 61.76,57.85 100.26,86.53 36.4,27.12 76.7,54.16 118.47,81.19l8.61 -40.11 68.31 -317.77 0.2 -0.96 0.46 -0.81 6.02 -10.74 -91.75 -15.42 -678.16 -114.02 -28.31 -4.76 -6.69 -1.12 -0.04 0 -3.07 -0.55 -34.92 -5.86 -681.51 -114.65 -105.53 -17.75 1.58 8.79 0.17 0.97 -0.1 0.89 -39.66 324.53zm1221.7 2959.9l-179.95 21.34 -244.28 1136.62c75.37,-156.23 147.09,-326.51 215.15,-510.5 73.9,-199.83 143.55,-415.83 209.08,-647.46zm-193.13 22.91l-1413.61 167.73 -192.07 1571.58 -108.59 888.53 18.49 390.02 461.64 77.69 7.89 1.29 0.07 0 6.68 1.15 7.9 1.32 6.69 1.12 454.95 76.56 145.13 -362.55 350.62 -1631.55 254.21 -1182.89zm-5283.11 -7744.68c-262.26,871.16 -465.22,1771.94 -618.18,2697.57 -152.98,925.69 -256.03,1876.54 -318.51,2847.72l-12.54 -0.79c62.5,-971.42 165.62,-1922.66 318.68,-2848.95 153.07,-926.35 356.15,-1827.66 618.51,-2699.15l12.04 3.6zm1532.26 -2631.27l24.09 6.83 26.85 7.6c196.05,-493.48 390.89,-1058.56 585.28,-1704.04 193.74,-643.36 387.08,-1366.6 580.77,-2178.46 -27.33,19.27 -53.71,36.36 -79.03,51.27 -29.86,17.57 -58.18,32.08 -84.69,43.37 -440.01,187.57 -848.54,310.14 -1261.92,340.96 -413.52,30.81 -831.86,-30.17 -1291.29,-209.73 -126.62,-49.47 -244.27,-165.36 -333.21,-318.41 -87.2,-150.01 -147.01,-335.91 -160.83,-530.05l-0.05 -0.67 0 -0.04c-1.04,-14.86 -1.83,-30.02 -2.33,-45.36 -0.46,-13.99 -0.67,-28.04 -0.64,-42.16l-0.26 -0.17 -0.68 -0.39 -0.1 -0.1c-62.07,-37.41 -152.02,-65.26 -280.16,-83.45 -118.17,-16.76 -268.69,-25.29 -459.38,-25.62l0 0.58 -27.58 -0.3 -27.02 -0.2 -27.05 0.2 -27.62 0.3 0 -0.58c-192.53,0.35 -344.04,9.01 -462.78,26.1 -127.01,18.29 -216.25,46.2 -277.83,83.63 0.46,208.75 -54.37,412.88 -142.04,578.92 -91.07,172.46 -217.74,304.15 -354.98,357.77 -459.43,179.56 -877.78,240.54 -1291.3,209.73 -413.38,-30.82 -821.9,-153.39 -1261.92,-340.96 -26.51,-11.29 -54.83,-25.8 -84.69,-43.37 -25.32,-14.9 -51.68,-31.99 -79.01,-51.25 166.74,698.89 333.18,1331.89 499.76,1904.58 167.98,577.36 336.21,1093.83 505.23,1555.09l3.06 8.31c349.33,951.96 702,1668.06 1062.67,2198.24 359.41,528.28 726.76,872.01 1106.68,1080.68l-7.11 -22.61 -11.89 -37.48 11.94 -3.8 11.91 37.51 0.02 0.04 11 34.97c109.88,59.2 220.84,107.32 332.91,145.37 96.44,32.73 193.76,58.07 292.06,76.72 -52.16,-27.08 -102.13,-65.67 -147.54,-112.35 -85.03,-87.41 -154.33,-203.35 -192.06,-324.78 -37.8,-121.72 -44.02,-249.19 -2.82,-359.4 19.91,-53.21 50.87,-102.4 94.59,-144.95 42.54,-41.38 97.22,-76.5 165.53,-102.88 63.57,-24.56 138.97,-41.62 227.44,-49.2l0.49 -0.09 0.05 -4.37c7.89,0.1 15.59,0.3 23.08,0.53 7.6,0.25 15.08,0.53 22.29,0.86 14.61,-0.68 29.62,-1.19 45.16,-1.39l0.05 4.39 0.63 0.08c94.89,8.15 174.72,27.17 240.99,54.65 71.69,29.73 127.61,69.43 169.74,116.05 34.41,38.07 59.63,80.76 76.69,126.37 43.71,116.89 34.08,253.19 -10.03,381.49 -44.01,127.95 -122.48,248.19 -216.58,333.27 -36.57,33.04 -75.57,60.79 -115.79,81.69 457.03,-86.73 893.81,-317.13 1317.38,-768 439.57,-467.91 865.09,-1173.27 1284.45,-2201.66l0.02 0 6.98 -17.37 4.81 -11.98 -7.14 -23.15 -12.93 -42.02 11.97 -3.69 12.94 42.01 2.6 8.41 8.28 -20.55 14.88 -37.23 0 -0.02 3.28 -8.15 -25.58 -7.24 -24.08 -6.83 3.39 -12.07zm63.05 17.86c952.38,270.69 1804.87,591.48 2584.36,948.71 781.27,358.01 1489.34,752.73 2151.37,1170.4l2.98 1.88 -0.05 3.51c-6.69,366.65 -15.5,725.32 -26.42,1075.7 -10.92,350.66 -24.02,693.08 -39.29,1026.84l-12.54 -0.52c15.29,-334.05 28.39,-676.4 39.29,-1026.65 10.91,-349.39 19.7,-706.86 26.36,-1072.07 -660.72,-416.67 -1367.34,-810.47 -2146.91,-1167.71 -779.2,-357.1 -1631.47,-677.75 -2583.8,-948.37l-3.76 9.36 -14.88 37.23 0 0.02 -14.07 34.91c182.67,590.45 353.36,1060.95 512.02,1411.4 158.5,350.13 304.88,580.11 438.99,689.85l6.76 5.54 -7.42 4.66 -888.58 555.36 1112.29 407.84 5 1.83 -0.99 5.21c-171.82,901.33 -404.62,1772.26 -712.36,2605.69 -307.74,833.43 -690.53,1629.49 -1162.4,2381.02l-10.59 -6.67c471.33,-750.67 853.72,-1545.93 1161.22,-2378.67 306.89,-831.16 539.18,-1699.66 710.78,-2598.46l-1119.31 -410.43 -12.04 -4.42 10.88 -6.8 892.1 -557.56c-133.78,-113.04 -279.07,-342.66 -435.78,-688.85 -157.5,-347.89 -326.86,-813.97 -508,-1398.1l-6.03 15.02 0 0.04c-419.98,1029.86 -846.3,1736.46 -1286.96,2205.52 -440.97,469.41 -896.35,701.03 -1374.04,780.68l-0.86 0.33 -0.03 0c-2.99,1.12 -6.02,2.26 -9.06,3.28l0 0.02c-13.32,4.54 -26.78,8.28 -40.23,11.17 12.51,0.87 24.99,1.65 37.23,2.29l-0.62 12.54c-17.59,-0.89 -34.91,-2.01 -51.92,-3.3 -16.31,-1.22 -33.38,-2.74 -51.1,-4.41l0 0.02 -0.18 -0.02 -0.15 -0.01c-4.39,0 -8.87,-0.12 -13.41,-0.36l-0.03 0c-4.14,-0.2 -8.56,-0.62 -13.05,-1.03l-0.1 0c-4.49,0.41 -8.86,0.83 -13.01,1.04 -4.54,0.23 -9.06,0.35 -13.42,0.35l-0.24 0.01 -0.1 0.02 0 -0.02c-14.96,1.41 -29.1,2.63 -42.58,3.65 -14.05,1.06 -28.48,2.05 -43.16,2.94l-7.46 0.52 -0.03 0 -8.86 0.6 -0.41 0.01 -0.3 0 -0.25 0 -0.3 0 0 -12.57 0.3 0 0.25 0 0.13 0 8.58 -0.57 7.45 -0.53 0.09 0 19.26 -1.29c-3.66,-0.79 -7.29,-1.6 -10.93,-2.52 -6.42,-1.62 -12.97,-3.53 -19.52,-5.61l-0.01 0c-6.11,-1.95 -12.34,-4.16 -18.59,-6.48 -115.87,-19.3 -230.46,-47.66 -343.85,-86.14 -108.92,-37 -216.77,-83.4 -323.56,-140.18 453.05,1447.23 618.6,2710.05 766.89,3841.41 38.17,291.16 75.22,573.68 115.88,849.53 15.61,105.77 31.62,209.81 48.23,311.8 16.73,102.7 34.26,204.46 52.84,305.23l-12.34 2.25c-18.56,-100.64 -36.09,-202.47 -52.87,-305.47 -16.89,-103.69 -32.91,-207.61 -48.3,-311.99 -40.43,-274.27 -77.59,-557.66 -115.88,-849.73 -148.62,-1134.02 -314.6,-2400.19 -770.22,-3851.51l-8.26 -4.49c-382.75,-209.42 -752.61,-554.87 -1114.21,-1086.39 -361.28,-531.07 -714.41,-1248.06 -1064.08,-2200.93l-3.07 -8.32c-169.08,-461.47 -337.43,-978.23 -505.49,-1555.91 -167.92,-577.25 -335.57,-1215.12 -503.34,-1919.28 -303.81,-220.58 -723.11,-706.34 -1104.78,-1432.01 -292.85,-556.78 -563.7,-1255 -743.37,-2083.22l-2.59 -11.99 11.23 4.93c68.81,30.2 138.89,60.19 210.06,89.95 65.73,27.48 132.31,54.76 199.49,81.81 -402.83,-746.02 -758.92,-1579.91 -1061.28,-2514.38 -304.39,-940.7 -554.41,-1983.43 -743.06,-3141.11l-2.34 -14.42 12.06 8.23c759.1,518.55 1497.93,1077.78 2211.73,1686.92 712.73,608.24 1400.57,1266.33 2058.83,1983.58 156.31,-66.87 319.86,-130.48 487.62,-189.74 170,-60.05 344.54,-115.75 520.53,-166.11l0.95 3.36c136.77,-515.89 445.22,-1053.1 916.74,-1476.9 879.75,-790.71 2327.23,-1187.18 4286.42,-315.18l11.24 5.01 -10.64 6.14c-839.08,484.62 -727.53,595.39 -578.3,743.57 220.07,218.49 519.51,515.87 -1791.78,2095.86 -1032.22,705.62 -1781.02,849.13 -2260.97,667.6 -497.55,-188.18 -706.25,-724.74 -642.76,-1346.82l0 -0.03c12.3,-120.45 34.8,-244.1 67.4,-369.07 -173.88,49.85 -346.42,104.99 -514.64,164.41 -169.1,59.73 -333.8,123.81 -490.99,191.16l-4.06 1.75 -3.02 -3.28c-658.77,-718.1 -1347.28,-1376.92 -2060.72,-1985.77 -709.69,-605.63 -1444.1,-1161.86 -2198.55,-1677.82 188.25,1151.23 437.31,2188.6 740.25,3124.83 303.91,939.19 662.06,1776.69 1067.5,2525.47 335.72,134.69 689.63,265.2 1055.15,399.97 975.26,359.58 2033.3,749.72 3052.55,1332.67 180.26,103.08 308.28,234.46 393.66,379.64 95.17,161.8 137.33,340.76 139.87,516.83 62.73,-36.4 151.74,-63.64 276.18,-81.55 130.23,-18.76 299.72,-27.46 519.23,-26.11 217.56,-1.34 385.96,7.22 515.7,25.63 126.24,17.93 216.27,45.31 279.59,82.07 2.56,-176.32 44.84,-355.51 140.28,-517.5 85.38,-144.91 213.29,-276.07 393.3,-379.01 1019.26,-582.95 2077.29,-973.09 3052.55,-1332.67 365.51,-134.77 719.42,-265.28 1055.13,-399.95l2.3 -4.27 1.13 -2.11 0 -0.02c404.79,-748.53 762.37,-1585.69 1065.79,-2524.35 302.17,-934.85 550.65,-1970.48 738.55,-3119.59 -754.47,515.97 -1488.86,1072.21 -2198.54,1677.84 -713.45,608.85 -1401.95,1267.67 -2060.73,1985.77l-3.02 3.28 -4.06 -1.75c-123.6,-52.95 -251.75,-103.87 -382.94,-152.17 -132.13,-48.67 -267.44,-94.78 -404.35,-137.82l3.73 -11.97c137.16,43.12 272.67,89.29 404.94,138.02 130,47.87 256.97,98.28 379.46,150.67 658.25,-717.24 1346.1,-1375.33 2058.82,-1983.57 713.79,-609.14 1452.62,-1168.37 2211.72,-1686.92l12.06 -8.23 -2.34 14.42c-188.3,1155.55 -437.74,2196.51 -741.36,3135.85 -302.74,936.58 -659.38,1772.19 -1062.98,2519.6 68.95,-27.73 137.19,-55.73 204.59,-83.93 69.43,-29.05 137.82,-58.33 204.96,-87.79l11.23 -4.93 -2.59 11.99c-179.66,828.22 -450.52,1526.44 -743.36,2083.22 -381.68,725.67 -800.97,1211.43 -1104.79,1432.01 -194.82,817.69 -389.36,1545.82 -584.33,2193.23 -194.25,645.06 -389.06,1210.09 -585.21,1703.88zm-2870.08 3118.11l14.83 1.63 14.85 -1.63 15.06 -1.75 -44.74 1.75zm-15.12 -1.75l15.12 1.75 -15.12 -1.75zm-34.92 -4.36l11.06 1.39 0.96 -3.07c3.73,1.17 7.62,2.29 11.55,3.31 3.79,0.99 7.59,1.92 11.35,2.73l-34.92 -4.36zm-34.43 -4.83c12.14,1.78 23.56,3.4 34.43,4.83l-34.43 -4.83zm-20.77 -3.15l0 -0.02 20.77 3.17 -20.77 -3.15zm-20.04 -3.22l20.04 3.22 -20.04 -3.22zm181.43 12.83c3.91,-1.02 7.77,-2.16 11.5,-3.31l0.96 3.07c8.69,-1.11 17.37,-2.26 26.01,-3.47 16.94,-2.36 33.45,-4.86 49.52,-7.44l0.61 -0.1 0.07 0 10.13 -1.58c55.17,-20.72 108.88,-55.47 158.24,-100.08 92.52,-83.65 169.72,-202.02 213.08,-328.09 43.24,-125.75 52.77,-259.11 10.17,-373.05 -16.53,-44.19 -40.93,-85.52 -74.22,-122.34 -40.87,-45.23 -95.32,-83.83 -165.28,-112.85 -65.04,-26.97 -143.59,-45.66 -237.21,-53.69 -7.6,-0.64 -15.14,-1.25 -22.33,-1.73 -7.56,-0.5 -15.05,-0.99 -22.3,-1.32l-0.53 0c-7.24,0.34 -14.68,0.82 -22.25,1.32 -7.21,0.48 -14.68,1.07 -22.29,1.71 -87.34,7.51 -161.57,24.27 -223.94,48.35 -66.66,25.75 -119.96,59.95 -161.31,100.18 -42.34,41.2 -72.32,88.83 -91.58,140.32 -40.17,107.44 -34,232.08 3.05,351.36 37.15,119.56 105.36,233.69 189.05,319.73 57.56,59.12 122.38,104.99 189.42,130.18l181.43 12.83zm-4545.45 -10280.22c-37.91,-57.28 -78.06,-118.04 -120.61,-183.2 -42.03,-64.32 -86.23,-132.64 -132.53,-205.42l-0.01 -0.03 -29.51 -46.6 -30.01 -47.71 0 -0.01c-267.42,-426.64 -590.44,-986.02 -941.16,-1740.59 -350.76,-754.6 -729.35,-1704.57 -1108.02,-2912.48l-6.99 -22.32 17.22 15.83c565.41,520.11 1115.27,1059.77 1640.06,1630.66 524.82,570.88 1024.66,1173.08 1490.16,1818.25l4.21 5.82 -6.34 3.36c-49.58,26.48 -140.32,135.23 -243.09,298.29 -87.72,139.14 -183.94,317.57 -270.57,517.94 -20.39,47.18 -40.35,95.76 -59.6,145.46 -18.23,47.06 -35.81,95.18 -52.49,144.12 -32.78,96.14 -62.07,194.99 -86.24,294.97 -22.47,92.9 -40.58,186.99 -53.03,281l-2.19 16.63 -9.26 -13.97zm-110.12 -190.06c38.53,58.98 75.88,115.55 111.42,169.27 12.41,-88.84 29.75,-177.83 51.01,-265.81 24.28,-100.49 53.67,-199.71 86.53,-296.06 16.65,-48.84 34.31,-97.15 52.69,-144.61 19.17,-49.5 39.21,-98.25 59.8,-145.89 86.93,-201.06 183.46,-380.07 271.46,-519.65 99.88,-158.46 189.27,-266.57 241.63,-299.07 -464.02,-642.56 -962.2,-1242.56 -1485.22,-1811.51 -519.18,-564.79 -1062.9,-1099.01 -1622.01,-1613.98 376.14,1196.7 751.99,2139.11 1100.36,2888.57 350.54,754.19 673.24,1313.02 940.37,1739.18l30.01 47.7 29.49 46.57c45.76,71.92 90.01,140.34 132.46,205.29zm3279.09 1859.79c-1018.33,-582.42 -2075.85,-972.37 -3050.63,-1331.77 -366.28,-135.05 -720.93,-265.84 -1057.59,-400.94 -72.78,-29.22 -144.75,-58.64 -215.71,-88.3 -66.97,-28.01 -133.3,-56.35 -198.97,-85.1 179.42,821.78 448.61,1514.86 739.54,2068.02 381.48,725.3 800.25,1210.04 1102.97,1429.08 31.97,23.12 62.62,43.32 91.7,60.42 29.23,17.21 57.09,31.46 83.27,42.61 438.78,187.02 846.03,309.27 1257.92,339.97 411.73,30.68 828.31,-30.05 1285.82,-208.87 134.38,-52.5 258.75,-182.04 348.45,-351.93 87.18,-165.12 141.55,-368.27 140.59,-575.92l-0.01 -0.01 0 -0.68 0.01 0c-0.9,-177.56 -42.32,-358.4 -138.24,-521.49 -84.31,-143.34 -210.83,-273.13 -389.12,-375.09zm538.58 982.6c62.54,-39.21 153.13,-68.32 282.44,-87.29 128.66,-18.87 296.11,-27.81 512.89,-26.81l0.02 -0.01 2.5 0 0.02 0.01c214.23,-1 380.22,7.72 508.27,26.15 128.64,18.52 219.36,46.93 282.46,85.2l0.39 0.25 4.06 2.45 -6.47 10.69 -4.43 -2.69 -0.76 -0.44 -0.02 -0.02c-61.53,-37.13 -150.52,-64.79 -277.01,-83 -114.77,-16.5 -260.26,-25.16 -443.79,-26.02l0 0.53 -31.72 -0.34 -30.98 -0.22 -0.02 0.02 -2.5 0 -0.02 -0.02 -31.03 0.22 -31.74 0.34 0 -0.53c-185.93,0.89 -332.81,9.74 -448.31,26.68 -127.61,18.72 -216.63,47.21 -277.62,85.44l-6.63 -10.59zm5299.38 -2673.12c36.88,-55.74 75.48,-114.2 114.53,-173.99 42.93,-65.79 88.3,-135.94 136.07,-211.18l33.66 -53.21 34.28 -54.67 -0.01 -0.01c266.74,-427.23 587.48,-985.75 935.16,-1736.33 345.58,-745.97 717.86,-1681.84 1090.43,-2867.17 -559.12,514.97 -1102.84,1049.17 -1622.02,1613.96 -523.02,568.95 -1021.2,1168.95 -1485.21,1811.51 49.22,30.54 131.12,127.79 223.63,270.81 83.1,128.47 175.14,294.11 260.16,481.6 25.01,55.18 49.5,112.35 72.99,171.09 22.19,55.51 43.52,112.48 63.59,170.53 34.18,98.79 64.75,200.69 89.97,303.93 22.07,90.38 40.03,181.83 52.77,273.13zm125.02 -167.16c-44.41,67.99 -85.3,129.92 -123.72,187.95l-9.25 13.97 -2.2 -16.63c-12.76,-96.45 -31.5,-193.01 -54.79,-288.32 -25.11,-102.77 -55.58,-204.28 -89.64,-302.78 -19.96,-57.71 -41.22,-114.51 -63.39,-169.97 -23.36,-58.41 -47.79,-115.41 -72.8,-170.59 -84.8,-187.01 -176.5,-352.05 -259.21,-479.92 -95.37,-147.44 -178.54,-245.3 -225.19,-270.2l-6.34 -3.36 4.21 -5.82c465.5,-645.17 965.35,-1247.37 1490.17,-1818.25 524.78,-570.89 1074.64,-1110.55 1640.06,-1630.66l17.22 -15.83 -7 22.32c-375.09,1196.53 -750.11,2139.97 -1098.08,2891.11 -348.02,751.28 -668.98,1310.21 -935.89,1737.71l-0.03 0 -34.3 54.7 0 0.01 -33.66 53.28c-46.87,73.8 -92.44,144.29 -136.17,211.28zm-242.06 525.91c-974.78,359.4 -2032.3,749.35 -3050.63,1331.77 -178.02,101.81 -304.44,231.37 -388.75,374.47 -95.92,162.79 -137.46,343.27 -138.61,520.53l0.02 0 0 1.58 -0.02 0.02c-0.07,15.04 0.13,30.17 0.61,45.28 0.48,14.79 1.27,29.8 2.32,44.9l0.05 0.67c13.68,192.21 72.86,376.2 159.15,524.64 87.58,150.69 203.01,264.62 326.91,313.03 457.52,178.82 874.09,239.55 1285.82,208.87 411.89,-30.7 819.15,-152.95 1257.93,-339.97 26.17,-11.15 54.03,-25.4 83.26,-42.61 29.09,-17.1 59.73,-37.3 91.7,-60.42 302.73,-219.04 721.5,-703.78 1102.97,-1429.08 290.93,-553.15 560.12,-1246.24 739.54,-2068.01 -64,28.03 -128.65,55.63 -193.87,82.93 -69.23,28.96 -139.39,57.71 -210.35,86.23l-1.52 0.61 -8.94 3.62c-336.65,135.1 -691.31,265.89 -1057.59,400.94zm-5778.37 -1048.32c476.42,180.19 1221.14,36.75 2249.49,-666.22 2298.77,-1571.42 2005.5,-1862.67 1790,-2076.63 -155.22,-154.12 -271.28,-269.55 570.13,-757.08 -1947.9,-862.97 -3386.79,-468.3 -4261.63,318 -586.5,527.15 -919.62,1230.22 -982.7,1848.1 -62.91,616.46 143.16,1147.91 634.71,1333.83zm6796.37 13957.85l610.07 102.64 351.75 59.18 143.33 24.12 19.76 3.31 0 0.02 0.23 0.03 0.1 0 6.7 1.16 13.06 2.16 0.04 0 486.38 81.82 618.73 104.07 -2.08 12.37 -618.73 -104.07 -486.38 -81.82 -13.08 -2.16 -0.05 0 -6.7 -1.15 0 -0.02 -0.22 -0.03 -0.08 0 -19.76 -3.32 -143.33 -24.12 -351.75 -59.18 -610.06 -102.64 2.07 -12.37zm148 946.35l108.34 18.22 681.51 114.66 34.96 5.86 0.03 0 3.07 0.54 6.66 1.13 28.31 4.76 678.16 114.02 96.18 16.18 450.69 -804.1 0.53 -0.98 0.87 -0.72c290.98,-247.88 467.58,-549.66 531.74,-857.37 39.83,-191.08 36.33,-384.52 -10.03,-568.8 -46.36,-184.23 -135.63,-359.4 -267.26,-513.93 -215.93,-253.47 -546.04,-451.61 -988.15,-543.79l-0.05 0 -6.51 -1.41 -7.34 -1.61 -3.35 -0.72 0 -0.02 -3.18 -0.64 0.41 -2.06c-445.96,-56.47 -821.08,22.78 -1107.04,191.06 -173.8,102.26 -314.74,237.46 -418.63,395.04 -103.88,157.56 -170.82,337.66 -196.64,529.68 -42.21,313.94 25.45,659.9 220.91,992.07l0.58 0.99 0.19 1.07 164.28 915.4 0.76 -4.53z"/>
   <path id="_1" class="fil1 str0" d="M14284.75 23978.47l1386.68 -824.51 1.76 -1.05 2.06 0.21 87.4 8.96 39.57 -323.87 -166.98 -930.48c-196.5,-334.41 -264.47,-682.8 -221.97,-999.08 26.07,-193.84 93.68,-375.68 198.63,-534.86 104.94,-159.17 247.26,-295.72 422.74,-398.96 292.25,-171.99 676.61,-251.74 1133.67,-190.3l3.23 0.37 0.12 0.01 3.38 0.45 -0.55 4.21c443.04,93.11 774.22,292.36 991.23,547.08 132.94,156.05 223.09,332.95 269.9,519.05 46.81,186.08 50.34,381.42 10.13,574.37 -64.63,310.05 -242.32,613.99 -534.98,863.6l-447.95 799.24 2.37 0.4 -2.08 12.37 -6.83 -1.16 -7.75 13.86 -68.11 316.81 -9.61 44.8 10.45 6.72c20.84,13.33 41.13,26.14 61.37,38.93l46 29.13c7.95,-62.17 15.94,-125.86 23.81,-190.85 8.19,-67.85 16.24,-135.98 24.06,-204.19 4.52,-39.39 8.99,-78.73 13.33,-117.76 4.47,-40.05 8.81,-79.67 13.03,-118.9l12.47 1.32c-4.34,40.42 -8.71,80.14 -13.03,118.97 -4.42,39.82 -8.89,79.05 -13.33,117.79 -7.9,69.07 -15.95,137.16 -24.06,204.25 -7.92,65.29 -16.12,130.86 -24.57,196.82 66.81,42.68 131.13,85.47 183.98,128.62 116.77,95.36 178.76,193.08 93.91,296.98 -367.47,449.98 -372.93,1106.75 -376.69,1564.38 -2.53,305.61 -4.34,523.57 -114.65,536.65l-276.53 32.81c-66.04,233.85 -136.27,451.84 -210.81,653.38 -74.89,202.48 -154.18,388.49 -237.93,557.38l-350.58 1631.3 -0.11 0.52 -0.2 0.51 -147.21 367.76 -1.89 4.69 -4.97 -0.83 -459.92 -77.39 -6.7 -1.13 -7.92 -1.31 -0.02 0 -6.68 -1.16 0 -0.02 -7.86 -1.27 -0.05 0 -466.63 -78.53 -5 -0.84 -0.23 -5.05 -18.77 -395.63 -0.03 -0.57 0.07 -0.48 108.06 -884.16c-126.34,-47.62 -264.43,-110.19 -418.15,-190.16 -155.42,-80.84 -327.27,-179.7 -519.65,-299.01l6.56 -10.66c191.71,118.9 363.32,217.59 518.9,298.52 152.35,79.26 289.03,141.3 413.9,188.51l190.72 -1560.62 -301.55 35.78 -1.35 0.15 -1.35 -0.45 -927.86 -309.29c-6.89,325.25 -7.32,634.42 -1.32,927.38 6.06,295.28 18.71,574.37 37.94,837.16l0.45 6.1 -6.15 0.58c-334.58,31.29 -708.25,31.29 -1144.31,-18.71 -435.97,-49.99 -934.5,-150.02 -1518.92,-318.8l3.5 -12.04c583.64,168.56 1081.47,268.46 1516.84,318.37 432.58,49.61 803.48,49.9 1135.61,19.27 -18.97,-260.84 -31.47,-538.1 -37.49,-831.7 -6.04,-294.28 -5.56,-604.92 1.42,-931.75l-71.61 -23.86 3.92 -11.88 67.95 22.65c3.36,-153.51 8.16,-310.48 14.37,-470.91 6.33,-163.71 14.15,-330.97 23.42,-501.68 9.3,-170.94 20.08,-345.33 32.27,-523.1 12.1,-176.16 25.61,-355.66 40.56,-538.45 -72.3,1.37 -142.24,3.6 -210.6,6.37 -70.19,2.84 -138.89,6.3 -206.8,10.06l-10.68 0.59 -9.3 17.09 -10.98 -6 5.59 -10.28c-62.54,3.57 -124.64,7.39 -186.71,11.19 -404.77,24.76 -809.57,49.55 -1409.06,9.43l-10.23 -0.67c-2.64,28.43 -5.46,56.54 -8.49,84.3 -3.35,30.59 -6.9,60.72 -10.59,90.28 -22.52,180.32 -53.52,359.93 -90.05,537.67 -36.51,177.69 -78.55,353.4 -123.18,526.06 -57.32,221.88 -118.88,438.81 -178.46,648.76 -236.63,834.01 -442.23,1558.66 -226.27,2038.84l4.69 10.44 -11.3 -1.65c-515.93,-75.23 -1022.04,-153.11 -1528.14,-230.95 -1664.52,-256.04 -3329.05,-512.08 -5292.4,-668.46l-3.32 -0.28 -1.66 -2.94c-877.94,-1570 -1429.42,-3125.22 -1705.93,-4667.93 -276.51,-1542.75 -278.1,-3073.02 -56.26,-4592.99l0.36 -2.41 1.85 -1.53c574.1,-475.32 1205.68,-921.97 1912.21,-1331.09 706.46,-409.07 1487.99,-780.69 2362.07,-1106l4.36 11.74c-873.31,325.03 -1654.19,696.34 -2360.12,1105.12 -705.12,408.29 -1335.53,854.02 -1908.64,1328.36 -221.31,1517.98 -219.61,3046.1 56.51,4586.59 276.1,1540.38 826.64,3093.34 1702.91,4661.09 1962.4,156.46 3626.18,412.38 5289.94,668.29 503.33,77.43 1006.68,154.86 1516.9,229.32 -210.31,-484.3 -5.45,-1206.56 230.17,-2036.95 59.59,-210.01 121.16,-426.99 178.39,-648.51 44.61,-172.62 86.62,-348.15 123.04,-525.42 36.43,-177.18 67.35,-356.42 89.85,-536.68 3.81,-30.49 7.36,-60.56 10.59,-90.09 3.09,-28.07 5.88,-55.93 8.42,-83.45 -461.74,-3.54 -877.91,-3.56 -1251.89,-3.56l0 -0.02c-703.83,-0.03 -1257.98,-0.08 -1707.46,-23.96l10.9 18.12 -10.75 6.44 -15.28 -25.39c-1656.27,-90.56 -1884.55,-512.55 -2948.43,-2479.69 -331.92,-613.73 -745.31,-1378.1 -1308.76,-2329.57l10.78 -6.37c563.82,952.1 977.16,1716.37 1309.03,2330 1059.29,1958.63 1288.12,2381.43 2929.55,2472.6l-3312.41 -5508.28 -2.72 -4.53 4.03 -3.45 1043.42 -894.37c-97.36,-71.85 -194.91,-117.59 -292.45,-163.3 -100.23,-46.98 -200.49,-93.98 -300.93,-169.31l-5.19 -3.91 4.07 -5.03c350.32,-433.42 638.66,-1031.08 897.04,-1566.72l39.14 -81.09 11.29 5.44 -39.15 81.09c-257.67,534.14 -545.11,1129.92 -894.46,1564.02 97.72,72.31 195.6,118.27 293.5,164.16 100.23,46.98 200.49,93.97 300.93,169.31l6.27 4.68 -5.96 5.1 -1045.35 896.02 3314.07 5511.04 7.32 0.4c449.69,23.95 1003.9,24 1707.96,24.02l0 -0.02c373.85,0 790.08,0.03 1258.82,3.66l0.37 0 0.05 0 6.4 0.05 -0.03 0.38 9.87 0.65 0.01 0c598.75,40.06 1003.16,15.3 1407.51,-9.44 64.45,-3.94 128.91,-7.95 194.46,-11.63l27.34 -50.38 0.01 0 29.2 -54.27c272.36,-508.6 572.57,-1128.5 931.65,-1983.87 359.1,-855.42 777.08,-1946.27 1284.89,-3396.5l11.85 4.13c-507.96,1450.66 -926.02,2541.7 -1285.16,3397.22 -359.17,855.6 -659.59,1475.91 -932.18,1984.95l0 0.01 -29.21 54.3 0 0.04 -23.64 43.58 2.9 -0.17c67.59,-3.74 136.29,-7.2 207.01,-10.06 70.38,-2.84 142.71,-5.1 217.85,-6.46l6.93 -0.14 -0.56 6.9c-15.21,185.74 -28.95,367.47 -41.16,545.14 -12.22,178.27 -23.01,352.61 -32.26,522.91 -9.29,171.04 -17.11,338.24 -23.43,501.47 -6.26,161.96 -11.08,320.2 -14.43,474.64l930.11 310.04 1735.41 -205.9 474.44 -56.28c99.33,-11.78 101.12,-225.13 103.59,-524.28 3.78,-459.45 9.25,-1118.83 379.49,-1572.2 78.64,-96.28 19.04,-188.57 -92.09,-279.33 -67.61,-55.21 -154.03,-109.79 -240.44,-164.34 -20.83,-13.17 -41.73,-26.36 -61.44,-38.97l-0.02 0 -6.52 -4.19 -0.36 1.72 -12.27 -2.61 1.37 -6.36c-43.32,-27.96 -85.15,-55.99 -123.11,-84.25 -38.32,-28.55 -72.66,-57.32 -100.31,-86.3l-1457.27 -149.47 -1384.91 823.46 -6.37 -10.79zm1490.4 -815.11l1361.73 139.67 2.31 0.23 1.62 1.72c27.4,29.01 61.76,57.85 100.26,86.53 36.4,27.12 76.7,54.16 118.47,81.19l8.61 -40.11 68.31 -317.77 0.2 -0.96 0.46 -0.81 6.02 -10.74 -91.75 -15.42 -678.16 -114.02 -28.31 -4.76 -6.69 -1.12 -0.04 0 -3.07 -0.55 -34.92 -5.86 -681.51 -114.65 -105.53 -17.75 1.58 8.79 0.17 0.97 -0.1 0.89 -39.66 324.53zm1221.7 2959.9l-179.95 21.34 -244.28 1136.62c75.37,-156.23 147.09,-326.51 215.15,-510.5 73.9,-199.83 143.55,-415.83 209.08,-647.46zm-193.13 22.91l-1413.61 167.73 -192.07 1571.58 -108.59 888.53 18.49 390.02 461.64 77.69 7.89 1.29 0.07 0 6.68 1.15 7.9 1.32 6.69 1.12 454.95 76.56 145.13 -362.55 350.62 -1631.55 254.21 -1182.89zm-5283.11 -7744.68c-262.26,871.16 -465.22,1771.94 -618.18,2697.57 -152.98,925.69 -256.03,1876.54 -318.51,2847.72l-12.54 -0.79c62.5,-971.42 165.62,-1922.66 318.68,-2848.95 153.07,-926.35 356.15,-1827.66 618.51,-2699.15l12.04 3.6zm1532.26 -2631.27l24.09 6.83 26.85 7.6c196.05,-493.48 390.89,-1058.56 585.28,-1704.04 193.74,-643.36 387.08,-1366.6 580.77,-2178.46 -27.33,19.27 -53.71,36.36 -79.03,51.27 -29.86,17.57 -58.18,32.08 -84.69,43.37 -440.01,187.57 -848.54,310.14 -1261.92,340.96 -413.52,30.81 -831.86,-30.17 -1291.29,-209.73 -126.62,-49.47 -244.27,-165.36 -333.21,-318.41 -87.2,-150.01 -147.01,-335.91 -160.83,-530.05l-0.05 -0.67 0 -0.04c-1.04,-14.86 -1.83,-30.02 -2.33,-45.36 -0.46,-13.99 -0.67,-28.04 -0.64,-42.16l-0.26 -0.17 -0.68 -0.39 -0.1 -0.1c-62.07,-37.41 -152.02,-65.26 -280.16,-83.45 -118.17,-16.76 -268.69,-25.29 -459.38,-25.62l0 0.58 -27.58 -0.3 -27.02 -0.2 -27.05 0.2 -27.62 0.3 0 -0.58c-192.53,0.35 -344.04,9.01 -462.78,26.1 -127.01,18.29 -216.25,46.2 -277.83,83.63 0.46,208.75 -54.37,412.88 -142.04,578.92 -91.07,172.46 -217.74,304.15 -354.98,357.77 -459.43,179.56 -877.78,240.54 -1291.3,209.73 -413.38,-30.82 -821.9,-153.39 -1261.92,-340.96 -26.51,-11.29 -54.83,-25.8 -84.69,-43.37 -25.32,-14.9 -51.68,-31.99 -79.01,-51.25 166.74,698.89 333.18,1331.89 499.76,1904.58 167.98,577.36 336.21,1093.83 505.23,1555.09l3.06 8.31c349.33,951.96 702,1668.06 1062.67,2198.24 359.41,528.28 726.76,872.01 1106.68,1080.68l-7.11 -22.61 -11.89 -37.48 11.94 -3.8 11.91 37.51 0.02 0.04 11 34.97c109.88,59.2 220.84,107.32 332.91,145.37 96.44,32.73 193.76,58.07 292.06,76.72 -52.16,-27.08 -102.13,-65.67 -147.54,-112.35 -85.03,-87.41 -154.33,-203.35 -192.06,-324.78 -37.8,-121.72 -44.02,-249.19 -2.82,-359.4 19.91,-53.21 50.87,-102.4 94.59,-144.95 42.54,-41.38 97.22,-76.5 165.53,-102.88 63.57,-24.56 138.97,-41.62 227.44,-49.2l0.49 -0.09 0.05 -4.37c7.89,0.1 15.59,0.3 23.08,0.53 7.6,0.25 15.08,0.53 22.29,0.86 14.61,-0.68 29.62,-1.19 45.16,-1.39l0.05 4.39 0.63 0.08c94.89,8.15 174.72,27.17 240.99,54.65 71.69,29.73 127.61,69.43 169.74,116.05 34.41,38.07 59.63,80.76 76.69,126.37 43.71,116.89 34.08,253.19 -10.03,381.49 -44.01,127.95 -122.48,248.19 -216.58,333.27 -36.57,33.04 -75.57,60.79 -115.79,81.69 457.03,-86.73 893.81,-317.13 1317.38,-768 439.57,-467.91 865.09,-1173.27 1284.45,-2201.66l0.02 0 6.98 -17.37 4.81 -11.98 -7.14 -23.15 -12.93 -42.02 11.97 -3.69 12.94 42.01 2.6 8.41 8.28 -20.55 14.88 -37.23 0 -0.02 3.28 -8.15 -25.58 -7.24 -24.08 -6.83 3.39 -12.07zm63.05 17.86c952.38,270.69 1804.87,591.48 2584.36,948.71 781.27,358.01 1489.34,752.73 2151.37,1170.4l2.98 1.88 -0.05 3.51c-6.69,366.65 -15.5,725.32 -26.42,1075.7 -10.92,350.66 -24.02,693.08 -39.29,1026.84l-12.54 -0.52c15.29,-334.05 28.39,-676.4 39.29,-1026.65 10.91,-349.39 19.7,-706.86 26.36,-1072.07 -660.72,-416.67 -1367.34,-810.47 -2146.91,-1167.71 -779.2,-357.1 -1631.47,-677.75 -2583.8,-948.37l-3.76 9.36 -14.88 37.23 0 0.02 -14.07 34.91c182.67,590.45 353.36,1060.95 512.02,1411.4 158.5,350.13 304.88,580.11 438.99,689.85l6.76 5.54 -7.42 4.66 -888.58 555.36 1112.29 407.84 5 1.83 -0.99 5.21c-171.82,901.33 -404.62,1772.26 -712.36,2605.69 -307.74,833.43 -690.53,1629.49 -1162.4,2381.02l-10.59 -6.67c471.33,-750.67 853.72,-1545.93 1161.22,-2378.67 306.89,-831.16 539.18,-1699.66 710.78,-2598.46l-1119.31 -410.43 -12.04 -4.42 10.88 -6.8 892.1 -557.56c-133.78,-113.04 -279.07,-342.66 -435.78,-688.85 -157.5,-347.89 -326.86,-813.97 -508,-1398.1l-6.03 15.02 0 0.04c-419.98,1029.86 -846.3,1736.46 -1286.96,2205.52 -440.97,469.41 -896.35,701.03 -1374.04,780.68l-0.86 0.33 -0.03 0c-2.99,1.12 -6.02,2.26 -9.06,3.28l0 0.02c-13.32,4.54 -26.78,8.28 -40.23,11.17 12.51,0.87 24.99,1.65 37.23,2.29l-0.62 12.54c-17.59,-0.89 -34.91,-2.01 -51.92,-3.3 -16.31,-1.22 -33.38,-2.74 -51.1,-4.41l0 0.02 -0.18 -0.02 -0.15 -0.01c-4.39,0 -8.87,-0.12 -13.41,-0.36l-0.03 0c-4.14,-0.2 -8.56,-0.62 -13.05,-1.03l-0.1 0c-4.49,0.41 -8.86,0.83 -13.01,1.04 -4.54,0.23 -9.06,0.35 -13.42,0.35l-0.24 0.01 -0.1 0.02 0 -0.02c-14.96,1.41 -29.1,2.63 -42.58,3.65 -14.05,1.06 -28.48,2.05 -43.16,2.94l-7.46 0.52 -0.03 0 -8.86 0.6 -0.41 0.01 -0.3 0 -0.25 0 -0.3 0 0 -12.57 0.3 0 0.25 0 0.13 0 8.58 -0.57 7.45 -0.53 0.09 0 19.26 -1.29c-3.66,-0.79 -7.29,-1.6 -10.93,-2.52 -6.42,-1.62 -12.97,-3.53 -19.52,-5.61l-0.01 0c-6.11,-1.95 -12.34,-4.16 -18.59,-6.48 -115.87,-19.3 -230.46,-47.66 -343.85,-86.14 -108.92,-37 -216.77,-83.4 -323.56,-140.18 453.05,1447.23 618.6,2710.05 766.89,3841.41 38.17,291.16 75.22,573.68 115.88,849.53 15.61,105.77 31.62,209.81 48.23,311.8 16.73,102.7 34.26,204.46 52.84,305.23l-12.34 2.25c-18.56,-100.64 -36.09,-202.47 -52.87,-305.47 -16.89,-103.69 -32.91,-207.61 -48.3,-311.99 -40.43,-274.27 -77.59,-557.66 -115.88,-849.73 -148.62,-1134.02 -314.6,-2400.19 -770.22,-3851.51l-8.26 -4.49c-382.75,-209.42 -752.61,-554.87 -1114.21,-1086.39 -361.28,-531.07 -714.41,-1248.06 -1064.08,-2200.93l-3.07 -8.32c-169.08,-461.47 -337.43,-978.23 -505.49,-1555.91 -167.92,-577.25 -335.57,-1215.12 -503.34,-1919.28 -303.81,-220.58 -723.11,-706.34 -1104.78,-1432.01 -292.85,-556.78 -563.7,-1255 -743.37,-2083.22l-2.59 -11.99 11.23 4.93c68.81,30.2 138.89,60.19 210.06,89.95 65.73,27.48 132.31,54.76 199.49,81.81 -402.83,-746.02 -758.92,-1579.91 -1061.28,-2514.38 -304.39,-940.7 -554.41,-1983.43 -743.06,-3141.11l-2.34 -14.42 12.06 8.23c759.1,518.55 1497.93,1077.78 2211.73,1686.92 712.73,608.24 1400.57,1266.33 2058.83,1983.58 156.31,-66.87 319.86,-130.48 487.62,-189.74 170,-60.05 344.54,-115.75 520.53,-166.11l0.95 3.36c136.77,-515.89 445.22,-1053.1 916.74,-1476.9 879.75,-790.71 2327.23,-1187.18 4286.42,-315.18l11.24 5.01 -10.64 6.14c-839.08,484.62 -727.53,595.39 -578.3,743.57 220.07,218.49 519.51,515.87 -1791.78,2095.86 -1032.22,705.62 -1781.02,849.13 -2260.97,667.6 -497.55,-188.18 -706.25,-724.74 -642.76,-1346.82l0 -0.03c12.3,-120.45 34.8,-244.1 67.4,-369.07 -173.88,49.85 -346.42,104.99 -514.64,164.41 -169.1,59.73 -333.8,123.81 -490.99,191.16l-4.06 1.75 -3.02 -3.28c-658.77,-718.1 -1347.28,-1376.92 -2060.72,-1985.77 -709.69,-605.63 -1444.1,-1161.86 -2198.55,-1677.82 188.25,1151.23 437.31,2188.6 740.25,3124.83 303.91,939.19 662.06,1776.69 1067.5,2525.47 335.72,134.69 689.63,265.2 1055.15,399.97 975.26,359.58 2033.3,749.72 3052.55,1332.67 180.26,103.08 308.28,234.46 393.66,379.64 95.17,161.8 137.33,340.76 139.87,516.83 62.73,-36.4 151.74,-63.64 276.18,-81.55 130.23,-18.76 299.72,-27.46 519.23,-26.11 217.56,-1.34 385.96,7.22 515.7,25.63 126.24,17.93 216.27,45.31 279.59,82.07 2.56,-176.32 44.84,-355.51 140.28,-517.5 85.38,-144.91 213.29,-276.07 393.3,-379.01 1019.26,-582.95 2077.29,-973.09 3052.55,-1332.67 365.51,-134.77 719.42,-265.28 1055.13,-399.95l2.3 -4.27 1.13 -2.11 0 -0.02c404.79,-748.53 762.37,-1585.69 1065.79,-2524.35 302.17,-934.85 550.65,-1970.48 738.55,-3119.59 -754.47,515.97 -1488.86,1072.21 -2198.54,1677.84 -713.45,608.85 -1401.95,1267.67 -2060.73,1985.77l-3.02 3.28 -4.06 -1.75c-123.6,-52.95 -251.75,-103.87 -382.94,-152.17 -132.13,-48.67 -267.44,-94.78 -404.35,-137.82l3.73 -11.97c137.16,43.12 272.67,89.29 404.94,138.02 130,47.87 256.97,98.28 379.46,150.67 658.25,-717.24 1346.1,-1375.33 2058.82,-1983.57 713.79,-609.14 1452.62,-1168.37 2211.72,-1686.92l12.06 -8.23 -2.34 14.42c-188.3,1155.55 -437.74,2196.51 -741.36,3135.85 -302.74,936.58 -659.38,1772.19 -1062.98,2519.6 68.95,-27.73 137.19,-55.73 204.59,-83.93 69.43,-29.05 137.82,-58.33 204.96,-87.79l11.23 -4.93 -2.59 11.99c-179.66,828.22 -450.52,1526.44 -743.36,2083.22 -381.68,725.67 -800.97,1211.43 -1104.79,1432.01 -194.82,817.69 -389.36,1545.82 -584.33,2193.23 -194.25,645.06 -389.06,1210.09 -585.21,1703.88zm-2870.08 3118.11l14.83 1.63 14.85 -1.63 15.06 -1.75m-59.86 0l15.12 1.75m-50.04 -6.11l11.06 1.39 0.96 -3.07c3.73,1.17 7.62,2.29 11.55,3.31 3.79,0.99 7.59,1.92 11.35,2.73m-69.35 -9.19c12.14,1.78 23.56,3.4 34.43,4.83m-55.2 -7.98l0 -0.02 20.77 3.17m-40.81 -6.37l20.04 3.22m161.39 9.61c3.91,-1.02 7.77,-2.16 11.5,-3.31l0.96 3.07c8.69,-1.11 17.37,-2.26 26.01,-3.47 16.94,-2.36 33.45,-4.86 49.52,-7.44l0.61 -0.1 0.07 0 10.13 -1.58c55.17,-20.72 108.88,-55.47 158.24,-100.08 92.52,-83.65 169.72,-202.02 213.08,-328.09 43.24,-125.75 52.77,-259.11 10.17,-373.05 -16.53,-44.19 -40.93,-85.52 -74.22,-122.34 -40.87,-45.23 -95.32,-83.83 -165.28,-112.85 -65.04,-26.97 -143.59,-45.66 -237.21,-53.69 -7.6,-0.64 -15.14,-1.25 -22.33,-1.73 -7.56,-0.5 -15.05,-0.99 -22.3,-1.32l-0.53 0c-7.24,0.34 -14.68,0.82 -22.25,1.32 -7.21,0.48 -14.68,1.07 -22.29,1.71 -87.34,7.51 -161.57,24.27 -223.94,48.35 -66.66,25.75 -119.96,59.95 -161.31,100.18 -42.34,41.2 -72.32,88.83 -91.58,140.32 -40.17,107.44 -34,232.08 3.05,351.36 37.15,119.56 105.36,233.69 189.05,319.73 57.56,59.12 122.38,104.99 189.42,130.18m-4364.02 -10267.39c-37.91,-57.28 -78.06,-118.04 -120.61,-183.2 -42.03,-64.32 -86.23,-132.64 -132.53,-205.42l-0.01 -0.03 -29.51 -46.6 -30.01 -47.71 0 -0.01c-267.42,-426.64 -590.44,-986.02 -941.16,-1740.59 -350.76,-754.6 -729.35,-1704.57 -1108.02,-2912.48l-6.99 -22.32 17.22 15.83c565.41,520.11 1115.27,1059.77 1640.06,1630.66 524.82,570.88 1024.66,1173.08 1490.16,1818.25l4.21 5.82 -6.34 3.36c-49.58,26.48 -140.32,135.23 -243.09,298.29 -87.72,139.14 -183.94,317.57 -270.57,517.94 -20.39,47.18 -40.35,95.76 -59.6,145.46 -18.23,47.06 -35.81,95.18 -52.49,144.12 -32.78,96.14 -62.07,194.99 -86.24,294.97 -22.47,92.9 -40.58,186.99 -53.03,281l-2.19 16.63 -9.26 -13.97zm-110.12 -190.06c38.53,58.98 75.88,115.55 111.42,169.27 12.41,-88.84 29.75,-177.83 51.01,-265.81 24.28,-100.49 53.67,-199.71 86.53,-296.06 16.65,-48.84 34.31,-97.15 52.69,-144.61 19.17,-49.5 39.21,-98.25 59.8,-145.89 86.93,-201.06 183.46,-380.07 271.46,-519.65 99.88,-158.46 189.27,-266.57 241.63,-299.07 -464.02,-642.56 -962.2,-1242.56 -1485.22,-1811.51 -519.18,-564.79 -1062.9,-1099.01 -1622.01,-1613.98 376.14,1196.7 751.99,2139.11 1100.36,2888.57 350.54,754.19 673.24,1313.02 940.37,1739.18l30.01 47.7 29.49 46.57c45.76,71.92 90.01,140.34 132.46,205.29zm3279.09 1859.79c-1018.33,-582.42 -2075.85,-972.37 -3050.63,-1331.77 -366.28,-135.05 -720.93,-265.84 -1057.59,-400.94 -72.78,-29.22 -144.75,-58.64 -215.71,-88.3 -66.97,-28.01 -133.3,-56.35 -198.97,-85.1 179.42,821.78 448.61,1514.86 739.54,2068.02 381.48,725.3 800.25,1210.04 1102.97,1429.08 31.97,23.12 62.62,43.32 91.7,60.42 29.23,17.21 57.09,31.46 83.27,42.61 438.78,187.02 846.03,309.27 1257.92,339.97 411.73,30.68 828.31,-30.05 1285.82,-208.87 134.38,-52.5 258.75,-182.04 348.45,-351.93 87.18,-165.12 141.55,-368.27 140.59,-575.92l-0.01 -0.01 0 -0.68 0.01 0c-0.9,-177.56 -42.32,-358.4 -138.24,-521.49 -84.31,-143.34 -210.83,-273.13 -389.12,-375.09zm538.58 982.6c62.54,-39.21 153.13,-68.32 282.44,-87.29 128.66,-18.87 296.11,-27.81 512.89,-26.81l0.02 -0.01 2.5 0 0.02 0.01c214.23,-1 380.22,7.72 508.27,26.15 128.64,18.52 219.36,46.93 282.46,85.2l0.39 0.25 4.06 2.45 -6.47 10.69 -4.43 -2.69 -0.76 -0.44 -0.02 -0.02c-61.53,-37.13 -150.52,-64.79 -277.01,-83 -114.77,-16.5 -260.26,-25.16 -443.79,-26.02l0 0.53 -31.72 -0.34 -30.98 -0.22 -0.02 0.02 -2.5 0 -0.02 -0.02 -31.03 0.22 -31.74 0.34 0 -0.53c-185.93,0.89 -332.81,9.74 -448.31,26.68 -127.61,18.72 -216.63,47.21 -277.62,85.44l-6.63 -10.59zm5299.38 -2673.12c36.88,-55.74 75.48,-114.2 114.53,-173.99 42.93,-65.79 88.3,-135.94 136.07,-211.18l33.66 -53.21 34.28 -54.67 -0.01 -0.01c266.74,-427.23 587.48,-985.75 935.16,-1736.33 345.58,-745.97 717.86,-1681.84 1090.43,-2867.17 -559.12,514.97 -1102.84,1049.17 -1622.02,1613.96 -523.02,568.95 -1021.2,1168.95 -1485.21,1811.51 49.22,30.54 131.12,127.79 223.63,270.81 83.1,128.47 175.14,294.11 260.16,481.6 25.01,55.18 49.5,112.35 72.99,171.09 22.19,55.51 43.52,112.48 63.59,170.53 34.18,98.79 64.75,200.69 89.97,303.93 22.07,90.38 40.03,181.83 52.77,273.13zm125.02 -167.16c-44.41,67.99 -85.3,129.92 -123.72,187.95l-9.25 13.97 -2.2 -16.63c-12.76,-96.45 -31.5,-193.01 -54.79,-288.32 -25.11,-102.77 -55.58,-204.28 -89.64,-302.78 -19.96,-57.71 -41.22,-114.51 -63.39,-169.97 -23.36,-58.41 -47.79,-115.41 -72.8,-170.59 -84.8,-187.01 -176.5,-352.05 -259.21,-479.92 -95.37,-147.44 -178.54,-245.3 -225.19,-270.2l-6.34 -3.36 4.21 -5.82c465.5,-645.17 965.35,-1247.37 1490.17,-1818.25 524.78,-570.89 1074.64,-1110.55 1640.06,-1630.66l17.22 -15.83 -7 22.32c-375.09,1196.53 -750.11,2139.97 -1098.08,2891.11 -348.02,751.28 -668.98,1310.21 -935.89,1737.71l-0.03 0 -34.3 54.7 0 0.01 -33.66 53.28c-46.87,73.8 -92.44,144.29 -136.17,211.28zm-242.06 525.91c-974.78,359.4 -2032.3,749.35 -3050.63,1331.77 -178.02,101.81 -304.44,231.37 -388.75,374.47 -95.92,162.79 -137.46,343.27 -138.61,520.53l0.02 0 0 1.58 -0.02 0.02c-0.07,15.04 0.13,30.17 0.61,45.28 0.48,14.79 1.27,29.8 2.32,44.9l0.05 0.67c13.68,192.21 72.86,376.2 159.15,524.64 87.58,150.69 203.01,264.62 326.91,313.03 457.52,178.82 874.09,239.55 1285.82,208.87 411.89,-30.7 819.15,-152.95 1257.93,-339.97 26.17,-11.15 54.03,-25.4 83.26,-42.61 29.09,-17.1 59.73,-37.3 91.7,-60.42 302.73,-219.04 721.5,-703.78 1102.97,-1429.08 290.93,-553.15 560.12,-1246.24 739.54,-2068.01 -64,28.03 -128.65,55.63 -193.87,82.93 -69.23,28.96 -139.39,57.71 -210.35,86.23l-1.52 0.61 -8.94 3.62c-336.65,135.1 -691.31,265.89 -1057.59,400.94zm-5778.37 -1048.32c476.42,180.19 1221.14,36.75 2249.49,-666.22 2298.77,-1571.42 2005.5,-1862.67 1790,-2076.63 -155.22,-154.12 -271.28,-269.55 570.13,-757.08 -1947.9,-862.97 -3386.79,-468.3 -4261.63,318 -586.5,527.15 -919.62,1230.22 -982.7,1848.1 -62.91,616.46 143.16,1147.91 634.71,1333.83zm6796.37 13957.85l610.07 102.64 351.75 59.18 143.33 24.12 19.76 3.31 0 0.02 0.23 0.03 0.1 0 6.7 1.16 13.06 2.16 0.04 0 486.38 81.82 618.73 104.07 -2.08 12.37 -618.73 -104.07 -486.38 -81.82 -13.08 -2.16 -0.05 0 -6.7 -1.15 0 -0.02 -0.22 -0.03 -0.08 0 -19.76 -3.32 -143.33 -24.12 -351.75 -59.18 -610.06 -102.64 2.07 -12.37zm148 946.35l108.34 18.22 681.51 114.66 34.96 5.86 0.03 0 3.07 0.54 6.66 1.13 28.31 4.76 678.16 114.02 96.18 16.18 450.69 -804.1 0.53 -0.98 0.87 -0.72c290.98,-247.88 467.58,-549.66 531.74,-857.37 39.83,-191.08 36.33,-384.52 -10.03,-568.8 -46.36,-184.23 -135.63,-359.4 -267.26,-513.93 -215.93,-253.47 -546.04,-451.61 -988.15,-543.79l-0.05 0 -6.51 -1.41 -7.34 -1.61 -3.35 -0.72 0 -0.02 -3.18 -0.64 0.41 -2.06c-445.96,-56.47 -821.08,22.78 -1107.04,191.06 -173.8,102.26 -314.74,237.46 -418.63,395.04 -103.88,157.56 -170.82,337.66 -196.64,529.68 -42.21,313.94 25.45,659.9 220.91,992.07l0.58 0.99 0.19 1.07 164.28 915.4 0.76 -4.53z"/>
  </g>
 </g>
</svg>
